<svg xmlns="http://www.w3.org/2000/svg" xmlns:xlink="http://www.w3.org/1999/xlink" width="36.49" height="36.49" viewBox="0 0 36.49 36.49">
  <defs>
    <linearGradient id="linear-gradient" x1="-0.18" y1="-0.855" x2="1.105" y2="2.06" gradientUnits="objectBoundingBox">
      <stop offset="0" stop-color="#fbbf14"/>
      <stop offset="0.481" stop-color="#e77023"/>
      <stop offset="0.597" stop-color="#e66b24"/>
      <stop offset="1" stop-color="#f48120"/>
    </linearGradient>
    <linearGradient id="linear-gradient-2" x1="-1.653" y1="-2.551" x2="2.529" y2="3.537" xlink:href="#linear-gradient"/>
    <linearGradient id="linear-gradient-3" x1="-2.468" y1="-6.233" x2="4.813" y2="10.284" xlink:href="#linear-gradient"/>
  </defs>
  <g id="Group_171" data-name="Group 171" transform="translate(-575.24 -6704.647)">
    <path id="Path_145" data-name="Path 145" d="M575.487,6740.891a.687.687,0,0,1-.14-.581l2.792-7.543a18.247,18.247,0,1,1,5.472,5.472l-7.526,2.809A.8.8,0,0,1,575.487,6740.891Zm30.056-5.936a17.053,17.053,0,1,0-27.936-5.83,34.9,34.9,0,0,0,1.83,3.566l-2.469,6.719,6.72-2.469c.68.274,1.262.743,1.911,1.083A17.2,17.2,0,0,0,605.543,6734.955Z" fill="url(#linear-gradient)"/>
    <g id="Group_170" data-name="Group 170">
      <path id="Path_146" data-name="Path 146" d="M593.483,6731.078c.338.338,2.864-1.675,3.229-1.988.317-.273,1.355-1.379,1.594-1.483.586-.255.851.277.8.8-.211,2.121-2.273,5.426-4.22,6.365a4.5,4.5,0,0,1-6.284-4.333,8.993,8.993,0,0,1,.308-1.492c.538-2.279,1.326-4.506,1.8-6.8-.564.027-2.147.516-2.558.193a.716.716,0,0,1-.162-.213,16.426,16.426,0,0,1-.059-2.722.564.564,0,0,1,.434-.542l5.835-1.151a2.109,2.109,0,0,1,2.065,2.37c-.734,3.354-1.9,6.626-2.637,9.975A3.472,3.472,0,0,0,593.483,6731.078Zm-4.354-11.185v1.276c.7.085,2.959-.927,3.037.214l-2.352,8.991a3.375,3.375,0,0,0,1.694,3.167c2.639,1.472,4.724-1.068,5.729-3.25l-2.278,1.55c-1.984,1-2.988.331-2.551-1.875.649-3.276,1.931-6.618,2.632-9.9a.889.889,0,0,0-.983-1.138Z" fill="url(#linear-gradient-2)"/>
      <path id="Path_147" data-name="Path 147" d="M597.769,6713.824a3.22,3.22,0,1,1-3.22-3.22A3.221,3.221,0,0,1,597.769,6713.824Zm-1.2,0a2.02,2.02,0,1,0-2.02,2.02A2.019,2.019,0,0,0,596.572,6713.825Z" fill="url(#linear-gradient-3)"/>
    </g>
  </g>
</svg>
