<svg xmlns="http://www.w3.org/2000/svg" xmlns:xlink="http://www.w3.org/1999/xlink" width="28.206" height="41.941" viewBox="0 0 28.206 41.941">
  <defs>
    <linearGradient id="linear-gradient" x1="-0.22" y1="-0.543" x2="1.605" y2="1.81" gradientUnits="objectBoundingBox">
      <stop offset="0" stop-color="#fbbf14"/>
      <stop offset="0.481" stop-color="#e77023"/>
      <stop offset="0.597" stop-color="#e66b24"/>
      <stop offset="1" stop-color="#f48120"/>
    </linearGradient>
    <linearGradient id="linear-gradient-2" x1="-1.753" y1="-2.616" x2="4.074" y2="6.045" xlink:href="#linear-gradient"/>
    <linearGradient id="linear-gradient-3" x1="-2.313" y1="-4.923" x2="4.541" y2="8.278" xlink:href="#linear-gradient"/>
  </defs>
  <g id="Group_137" data-name="Group 137" transform="translate(-821.852 -6602)">
    <g id="Group_135" data-name="Group 135">
      <path id="Path_110" data-name="Path 110" d="M840.592,6639.929c-.063.1,0,1.025-.025,1.283a2.994,2.994,0,0,1-1.886,2.534,23.98,23.98,0,0,1-4.9.13,2.956,2.956,0,0,1-2.4-2.745,10.2,10.2,0,0,0-.016-1.2,8.121,8.121,0,0,1-.887-.6c-1.274-1.367-.5-3.7-.73-5.4-.1-.773-.246-1.635-.376-2.42-.544-3.29-3.563-4.686-5.245-7.38-8.093-12.959,7.041-28.317,19.726-19.545a14.419,14.419,0,0,1,3.472,20.3c-1.7,2.363-4.214,3.442-4.741,6.623-.13.785-.272,1.647-.375,2.42-.228,1.705.544,4.036-.73,5.4A8.127,8.127,0,0,1,840.592,6639.929Zm-5.353-35.969c-9.2.69-14.388,11.117-9.579,18.994,2.007,3.288,4.893,3.977,5.615,8.363.156.947-.181,2.082,1.046,2.2,2.359.227,5.086-.174,7.484-.01,1-.153.761-1.47.889-2.268.719-4.462,4.406-5.6,6.212-9.389C850.864,6613.554,844.5,6603.265,835.239,6603.96Zm5.068,31.446H831.65v2.21c0,.192.493.72.762.68,2.243-.186,4.846.234,7.044,0,.319-.034.851-.351.851-.682Zm-1.713,4.87h-5.231c-.032.866-.125,1.616.942,1.718a22.734,22.734,0,0,0,3.66-.047C838.744,6641.743,838.6,6640.908,838.594,6640.276Z" fill="url(#linear-gradient)"/>
    </g>
    <g id="Group_136" data-name="Group 136">
      <path id="Path_111" data-name="Path 111" d="M836.3,6621.821a1.226,1.226,0,0,1-2.031-.672c-.033-.2-.007-1.519-.144-1.542h-3.738c-.212.049-.111,1.09-.134,1.321a1.2,1.2,0,0,1-2.4.084c-.218-2.479,1.217-6.979,2.656-9.018,1.691-2.4,3.04-.9,4.074,1.01a18.516,18.516,0,0,1,1.974,6.257C836.643,6619.987,836.855,6621.273,836.3,6621.821Zm-2.61-4.608c.018-.28-1.3-3.6-1.517-3.436a18.761,18.761,0,0,0-1.36,3.436Z" fill="url(#linear-gradient-2)"/>
      <path id="Path_112" data-name="Path 112" d="M843.045,6618.332c-.012,1,.3,2.513-1.158,2.513-1.38,0-1.274-1.524-1.239-2.514-.977.077-2.685.052-2.525-1.359.154-1.357,1.549-1,2.525-1.037-.008-1.084-.208-2.626,1.321-2.562,1.509.063.914,1.564,1.151,2.526,1.134.064,2.689-.254,2.484,1.436a1.228,1.228,0,0,1-1.16,1Z" fill="url(#linear-gradient-3)"/>
    </g>
  </g>
</svg>
