<svg xmlns="http://www.w3.org/2000/svg" xmlns:xlink="http://www.w3.org/1999/xlink" width="39.943" height="39.956" viewBox="0 0 39.943 39.956">
  <defs>
    <linearGradient id="linear-gradient" x1="-0.374" y1="-2.53" x2="4.473" y2="14.148" gradientUnits="objectBoundingBox">
      <stop offset="0" stop-color="#fbbf14"/>
      <stop offset="0.481" stop-color="#e77023"/>
      <stop offset="0.597" stop-color="#e66b24"/>
      <stop offset="1" stop-color="#f48120"/>
    </linearGradient>
    <linearGradient id="linear-gradient-2" x1="0.124" y1="-0.666" x2="1.058" y2="2.231" xlink:href="#linear-gradient"/>
    <linearGradient id="linear-gradient-3" x1="-0.828" y1="-4.209" x2="4.114" y2="12.496" xlink:href="#linear-gradient"/>
    <linearGradient id="linear-gradient-4" x1="-2.115" y1="-8.485" x2="2.768" y2="8.673" xlink:href="#linear-gradient"/>
    <linearGradient id="linear-gradient-5" x1="-2.598" y1="-10.237" x2="2.356" y2="6.971" xlink:href="#linear-gradient"/>
  </defs>
  <g id="Group_163" data-name="Group 163" transform="translate(-573.513 -6507.165)">
    <path id="Path_136" data-name="Path 136" d="M575.558,6509.2c-.134.831.345,2.847-.4,3.344-.769.512-1.48-.076-1.573-.909-.118-1.06-.2-3.351.726-4.013.724-.52,4.22-.7,4.6.134C579.79,6509.709,576.55,6509.142,575.558,6509.2Z" fill="url(#linear-gradient)"/>
    <g id="Group_162" data-name="Group 162">
      <path id="Path_137" data-name="Path 137" d="M593.01,6511.206a3.187,3.187,0,0,1,1.879.287c3.711,1.6,7.582,4.819,11.34,6.537a3.157,3.157,0,0,1,1.54,2.535c.36,4.2-.282,8.9,0,13.155-.169,1.953-1.213,2.34-2.677,3.238-2.917,1.79-6.314,3.811-9.333,5.39-1.792.937-2.29,1.124-4.166.177-3.224-1.627-7.469-4.092-10.5-6.06a3.15,3.15,0,0,1-1.856-2.745c.283-4.254-.359-8.955,0-13.155.153-1.785,1.118-2.224,2.463-3.058,3.4-2.109,7.028-3.882,10.418-6.014A3.264,3.264,0,0,1,593.01,6511.206Zm12.782,10.087c-1.282.387-2.646,1.739-3.85,2.134a1.006,1.006,0,0,1-1.148-1.546l3.814-2.233v-.259l-10.875-6.222a.939.939,0,0,0-.655.076,29.934,29.934,0,0,0-3.016,1.717c-2.31,1.305-4.642,2.631-6.918,3.993-.119.071-.95.528-.88.629l11.163,6.381c.207.038.552-.209.756-.31.761-.378,3.913-2.849,4.246-1.136a1.369,1.369,0,0,1-.12.926c-.369.618-3.193,1.684-3.82,2.357v12.948l10.825-6.2a1.443,1.443,0,0,0,.479-.572Zm-13.276,19.455V6527.8l-11.3-6.507v12.554a3.485,3.485,0,0,0,.359.6Z" fill="url(#linear-gradient-2)"/>
      <path id="Path_138" data-name="Path 138" d="M613.117,6512.449a1.016,1.016,0,0,1-1.573-.26,24.758,24.758,0,0,1-.1-2.99c-.97-.115-3.766.557-3.4-1.217.209-1,2.652-.832,3.466-.76a1.925,1.925,0,0,1,1.711,1.05C613.518,6508.879,613.582,6511.987,613.117,6512.449Z" fill="url(#linear-gradient-3)"/>
      <path id="Path_139" data-name="Path 139" d="M575.558,6545.086c.81.115,2.95-.355,3.35.527.385.849-.25,1.378-1.043,1.451-.968.089-3.133.168-3.8-.545-.592-.628-.627-3.159-.446-3.969a1.02,1.02,0,0,1,1.746-.487C575.8,6542.638,575.444,6544.329,575.558,6545.086Z" fill="url(#linear-gradient-4)"/>
      <path id="Path_140" data-name="Path 140" d="M613.121,6541.965c.427.392.379,3.289.207,3.887a1.683,1.683,0,0,1-.932,1.039,11.716,11.716,0,0,1-3.386.169.988.988,0,0,1-.121-1.967c.772-.12,1.758.072,2.557-.007a22.7,22.7,0,0,1,.1-2.859A1.049,1.049,0,0,1,613.121,6541.965Z" fill="url(#linear-gradient-5)"/>
    </g>
  </g>
</svg>
