<svg xmlns="http://www.w3.org/2000/svg" xmlns:xlink="http://www.w3.org/1999/xlink" width="41.931" height="26.928" viewBox="0 0 41.931 26.928">
  <defs>
    <linearGradient id="linear-gradient" x1="0.124" y1="-0.504" x2="1.35" y2="3.366" gradientUnits="objectBoundingBox">
      <stop offset="0" stop-color="#fbbf14"/>
      <stop offset="0.481" stop-color="#e77023"/>
      <stop offset="0.597" stop-color="#e66b24"/>
      <stop offset="1" stop-color="#f48120"/>
    </linearGradient>
    <linearGradient id="linear-gradient-2" x1="0.046" y1="-0.771" x2="1.752" y2="4.969" xlink:href="#linear-gradient"/>
    <linearGradient id="linear-gradient-3" x1="0.266" y1="-0.502" x2="2.19" y2="5.462" xlink:href="#linear-gradient"/>
    <linearGradient id="linear-gradient-4" x1="-0.18" y1="-1.855" x2="1.845" y2="5.162" xlink:href="#linear-gradient"/>
    <linearGradient id="linear-gradient-5" x1="-0.897" y1="-5.855" x2="3.357" y2="13.083" xlink:href="#linear-gradient"/>
  </defs>
  <g id="Group_149" data-name="Group 149" transform="translate(-693.755 -6805.65)">
    <path id="Path_127" data-name="Path 127" d="M716.358,6805.682a12.423,12.423,0,0,1,3.463.486,21.084,21.084,0,0,1,15.543,16.659,15.428,15.428,0,0,1,.269,3.955c-.089.558-.71.754-1.2.8-3.366.289-7.137-.225-10.546,0-1.487-.128-1.147-.971-1.295-2.026a8.05,8.05,0,0,0-4.722-6.315c-.67-.288-1.96-.418-2.184-1.137-.127-3.816-.019-7.656-.054-11.481A1.134,1.134,0,0,1,716.358,6805.682Zm17.2,19.818a18.7,18.7,0,0,0-15.852-17.6v9.005c.6.291,1.236.507,1.828.828a10.109,10.109,0,0,1,5.144,7.762Z" fill="url(#linear-gradient)"/>
    <g id="Group_147" data-name="Group 147">
      <path id="Path_128" data-name="Path 128" d="M699.265,6812.822a1.21,1.21,0,0,1,.51.114c2.792,2.556,5.384,5.353,8.1,8,.77.893-.155,1.723-.5,2.577a8.23,8.23,0,0,0-.419,1.406c-.23,1.216.229,2.522-1.406,2.662-3.409-.224-7.179.288-10.546,0-.551-.047-1.129-.253-1.2-.873-.3-2.5.736-6.407,1.756-8.7a19.974,19.974,0,0,1,2.977-4.825A1.293,1.293,0,0,1,699.265,6812.822Zm5.5,12.678a13.018,13.018,0,0,1,.707-2.82c.075-.2.412-.673.335-.829l-6.4-6.392a18.7,18.7,0,0,0-3.527,10.041Z" fill="url(#linear-gradient-2)"/>
      <path id="Path_129" data-name="Path 129" d="M712.216,6805.689c.8-.063,1.361-.043,1.586.854l-.012,11.426c-.158.87-1.359.9-2.054,1.183-.8.319-1.654,1.218-2.493.582l-7.926-7.926c-.656-.886-.108-1.318.55-1.861A21.073,21.073,0,0,1,712.216,6805.689Zm-.481,2.216a17.729,17.729,0,0,0-8.051,3.281l6.311,6.391c.086.064.158.026.246,0,.383-.094,1.066-.539,1.494-.671Z" fill="url(#linear-gradient-3)"/>
    </g>
    <g id="Group_148" data-name="Group 148">
      <path id="Path_130" data-name="Path 130" d="M720.793,6826.506a6.072,6.072,0,1,1-6.072-6.072A6.073,6.073,0,0,1,720.793,6826.506Zm-2.08,0a3.992,3.992,0,1,0-3.993,3.992A3.993,3.993,0,0,0,718.713,6826.509Z" fill="url(#linear-gradient-4)"/>
      <path id="Path_131" data-name="Path 131" d="M716.2,6824.272a1.042,1.042,0,0,1,.978,1.728,27.439,27.439,0,0,1-2.589,2.557,1.05,1.05,0,0,1-1,.115,11.45,11.45,0,0,1-1.752-1.567,1,1,0,0,1,.29-1.425c1-.643,1.6.611,1.884.561C714.567,6825.862,715.59,6824.389,716.2,6824.272Z" fill="url(#linear-gradient-5)"/>
    </g>
  </g>
</svg>
