<svg xmlns="http://www.w3.org/2000/svg" width="27.292" height="27.248" viewBox="0 0 27.292 27.248">
  <g id="Group_70" data-name="Group 70" transform="translate(-2652.676 -8172.276)">
    <path id="Path_60" data-name="Path 60" d="M2666.058,8172.3a1.286,1.286,0,0,1,1.03.246l11.561,8.341a3.446,3.446,0,0,1,1.227,1.918c.183,5.129.025,10.291.081,15.432a1.3,1.3,0,0,1-1.275,1.22c-2.837-.17-5.927.22-8.734,0a1.21,1.21,0,0,1-1.218-1c-.194-1.79.139-3.921,0-5.75a2.5,2.5,0,0,0-4.993-.054c-.146,1.864.117,3.913,0,5.8a1.208,1.208,0,0,1-1.213,1.01c-2.789.219-5.86-.167-8.678,0a1.245,1.245,0,0,1-1.169-1.218v-14.809a3.448,3.448,0,0,1,1.689-2.812c3.667-2.824,7.6-5.324,11.278-8.135A1.292,1.292,0,0,1,2666.058,8172.3Zm11.565,24.878v-13.91c0-.028-.185-.314-.217-.379l-11.092-8.056-.131.031L2655.2,8182.8a3.191,3.191,0,0,0-.242.408v13.909h6.616v-5.016a5.619,5.619,0,0,1,.641-1.745,4.755,4.755,0,0,1,8.133-.034,5.623,5.623,0,0,1,.661,1.778v5.07Z" fill="#f48120"/>
  </g>
</svg>
