<svg xmlns="http://www.w3.org/2000/svg" width="27.552" height="25.335" viewBox="0 0 27.552 25.335">
  <g id="Group_73" data-name="Group 73" transform="translate(-2950.687 -8173.233)">
    <path id="Path_65" data-name="Path 65" d="M2962.475,8173.252c2.067-.137,5.689.456,7.352,1.772a1.416,1.416,0,0,1-.026,2.258c-.977.7-2.17-.329-3.144-.671a9.852,9.852,0,1,0,.754,18.254c.3-.133.623-.369.9-.485a1.413,1.413,0,0,1,1.358,2.479c-4.823,3.169-11.963,1.7-15.716-2.466A12.7,12.7,0,0,1,2962.475,8173.252Z" fill="#f48120"/>
    <path id="Path_66" data-name="Path 66" d="M2973.958,8187.273h-10.975a2.686,2.686,0,0,1-.359-.169,1.427,1.427,0,0,1,0-2.431,2.748,2.748,0,0,1,.359-.169h10.975c.028-.115-.048-.131-.1-.2-.52-.679-2-1.633-2.077-2.471a1.425,1.425,0,0,1,2.309-1.254,33.228,33.228,0,0,1,3.358,3.365,2.785,2.785,0,0,1,0,3.885,32.715,32.715,0,0,1-3.293,3.3,1.417,1.417,0,0,1-2.374-1.188c.081-.838,1.557-1.791,2.077-2.471C2973.91,8187.4,2973.986,8187.388,2973.958,8187.273Z" fill="#f48120"/>
  </g>
</svg>
