<svg xmlns="http://www.w3.org/2000/svg" width="22.039" height="31.398" viewBox="0 0 22.039 31.398">
  <g id="Group_72" data-name="Group 72" transform="translate(-2728.784 -8170.201)">
    <path id="Path_63" data-name="Path 63" d="M2740.049,8170.2c1.251.351.955,1.558.979,2.571a8.572,8.572,0,0,1,7.348,7.924c.168,2.711-.143,5.585.012,8.313.11.658.654.76,1.088,1.116a3.689,3.689,0,0,1-2.11,6.522l-15.3-.011a3.694,3.694,0,0,1-1.9-6.541c.432-.347.946-.432,1.056-1.087.162-2.741-.168-5.648.015-8.371a8.574,8.574,0,0,1,7.345-7.866c.024-1.013-.272-2.22.979-2.571Zm-.808,4.916a6.2,6.2,0,0,0-5.558,5.644c-.2,2.67.2,5.6,0,8.265a3.773,3.773,0,0,1-1.1,2.386c-.362.333-1,.549-1.214.989a1.229,1.229,0,0,0,1.059,1.8h14.7a1.215,1.215,0,0,0,1.131-1.749c-.224-.527-.788-.649-1.193-1.01a3.736,3.736,0,0,1-1.126-2.3c-.245-2.674.191-5.681-.009-8.377A6.182,6.182,0,0,0,2739.241,8175.117Z" fill="#f48120"/>
    <path id="Path_64" data-name="Path 64" d="M2737.157,8199.109c1.634.128,3.71-.232,5.293,0a1.226,1.226,0,0,1-.052,2.426c-1.613.192-3.59-.117-5.241-.009A1.225,1.225,0,0,1,2737.157,8199.109Z" fill="#f48120"/>
  </g>
</svg>
