<svg width="40" height="40" viewBox="0 0 40 40" fill="none" xmlns="http://www.w3.org/2000/svg">
<mask id="mask0_2928_139" style="mask-type:alpha" maskUnits="userSpaceOnUse" x="0" y="0" width="40" height="40">
<path d="M39.96 0H0V39.96H39.96V0Z" fill="#808285"/>
</mask>
<g mask="url(#mask0_2928_139)">
<path d="M7.75678 25.8187C7.88246 25.7929 8.01211 25.7935 8.13754 25.8204C8.26298 25.8474 8.38145 25.9002 8.48539 25.9754C8.58933 26.0507 8.67648 26.1465 8.74132 26.2572C8.80615 26.368 8.84724 26.4912 8.86199 26.6186C8.72677 27.8328 9.03918 29.4362 8.85699 30.6041C8.81717 30.8193 8.70166 31.013 8.5313 31.1503C8.36095 31.2877 8.14704 31.3596 7.92831 31.3529C7.70958 31.3462 7.50048 31.2614 7.33887 31.1139C7.17725 30.9663 7.07379 30.7657 7.04723 30.5485C6.89849 29.3315 7.15827 27.8142 7.05223 26.563C7.08726 26.385 7.17203 26.2205 7.29673 26.0887C7.42144 25.9569 7.58097 25.8635 7.75678 25.8187Z" fill="#808285"/>
<path d="M11.3776 27.0257C11.5032 27.0007 11.6327 27.0019 11.7578 27.0292C11.8829 27.0565 12.0011 27.1095 12.1048 27.1846C12.2086 27.2596 12.2957 27.3553 12.3608 27.4657C12.4258 27.576 12.4674 27.6985 12.4828 27.8257C12.5251 28.38 12.5151 28.937 12.4529 29.4895C12.3932 29.6913 12.2657 29.8663 12.0919 29.985C11.9182 30.1037 11.7087 30.1591 11.499 30.1414C11.2894 30.1237 11.0922 30.0339 10.9408 29.8877C10.7894 29.7415 10.6931 29.5476 10.6681 29.3387C10.627 28.7998 10.632 28.2584 10.683 27.7204C10.7311 27.5556 10.82 27.4057 10.9414 27.2843C11.0628 27.1629 11.2128 27.0739 11.3776 27.0257Z" fill="#808285"/>
<path d="M26.9184 4.00208C27.0822 4.06487 27.2281 4.16694 27.3434 4.29919C27.4586 4.43145 27.5397 4.59016 27.5795 4.76102L27.5888 9.91474C29.0699 10.4324 30.3939 11.3208 31.4343 12.4952C32.4748 13.6697 33.1972 15.0911 33.5327 16.6238C33.9533 18.9962 33.723 21.4379 32.8665 23.6898C32.3335 25.0484 31.3934 26.3231 30.9486 27.6902C30.3195 29.6288 30.8632 31.9262 30.6639 33.9274C30.6699 34.1826 30.5755 34.4298 30.4011 34.6162C30.2266 34.8025 29.986 34.913 29.7309 34.9237C27.0017 35.1657 23.9187 34.738 21.1517 34.9237C20.938 34.8985 20.738 34.8059 20.5806 34.6593C20.4232 34.5126 20.3166 34.3195 20.2763 34.1081V32.085H16.1358C15.907 32.0575 15.6929 31.9578 15.5247 31.8004C15.3564 31.643 15.2427 31.4358 15.2 31.2093V26.408H13.6599C13.4931 26.3466 13.3418 26.2491 13.2165 26.123C13.086 25.9808 13.0038 25.8012 12.9816 25.6094C12.9595 25.4177 12.9986 25.2237 13.0934 25.0555C13.6094 23.6791 14.6335 22.2567 15.1865 20.8668C15.1352 19.4672 15.2205 18.066 15.4412 16.6829H7.74091C7.54165 16.6829 7.10399 16.2508 7.07481 16.0202L7.04492 4.81349C7.07414 4.63112 7.15117 4.45981 7.26819 4.31692C7.3852 4.17402 7.538 4.06461 7.71103 4L26.9184 4.00208ZM25.7712 5.81358H8.86037V14.8732H18.4936C18.9718 14.8732 20.2379 16.5311 20.4151 16.4991C20.7859 16.2443 21.8591 14.8732 22.2349 14.8732H25.7683L25.7712 5.81358ZM28.8513 33.1126C28.9281 31.0409 28.5894 28.9733 29.2733 26.9813C30.2697 24.0727 31.7741 22.88 31.9335 19.375C32.0816 16.1298 30.5899 13.2056 27.5831 11.8534V15.9904C27.5066 16.1497 27.4161 16.302 27.3126 16.4452C27.1651 16.5522 26.9998 16.6322 26.8244 16.6815L22.7935 16.6972C22.5658 16.7648 21.331 18.2272 20.9681 18.4948C20.8033 18.6469 20.5874 18.7314 20.3632 18.7314C20.1389 18.7314 19.923 18.6469 19.7583 18.4948C19.1604 18.0678 18.5776 17.1889 17.9791 16.7156L17.256 16.685C17.0349 18.2098 16.9492 19.7509 16.9998 21.2907L15.3829 24.5958H16.2589C16.4781 24.5958 17.014 25.015 17.014 25.2299V30.1825C17.0408 30.2158 17.0711 30.246 17.1044 30.2728H21.5168C21.6641 30.2728 22.0904 30.7433 22.0904 30.907V33.1132L28.8513 33.1126Z" fill="#808285"/>
<path d="M17.3174 11.249C17.8173 11.249 18.2226 10.8437 18.2226 10.3437C18.2226 9.84377 17.8173 9.43848 17.3174 9.43848C16.8174 9.43848 16.4121 9.84377 16.4121 10.3437C16.4121 10.8437 16.8174 11.249 17.3174 11.249Z" fill="#808285"/>
<path d="M13.2369 11.2443C13.7345 11.2443 14.1379 10.8409 14.1379 10.3433C14.1379 9.84576 13.7345 9.44238 13.2369 9.44238C12.7393 9.44238 12.3359 9.84576 12.3359 10.3433C12.3359 10.8409 12.7393 11.2443 13.2369 11.2443Z" fill="#808285"/>
<path d="M21.3893 11.2443C21.8869 11.2443 22.2902 10.8409 22.2902 10.3433C22.2902 9.84576 21.8869 9.44238 21.3893 9.44238C20.8917 9.44238 20.4883 9.84576 20.4883 10.3433C20.4883 10.8409 20.8917 11.2443 21.3893 11.2443Z" fill="#808285"/>
</g>
</svg>
