<svg width="40" height="40" viewBox="0 0 40 40" fill="none" xmlns="http://www.w3.org/2000/svg">
<mask id="mask0_2928_209" style="mask-type:alpha" maskUnits="userSpaceOnUse" x="0" y="0" width="40" height="40">
<path d="M39.96 0H0V39.96H39.96V0Z" fill="#D9D9D9"/>
</mask>
<g mask="url(#mask0_2928_209)">
<path d="M11.4588 14.167H6.74392C6.5467 14.1668 6.35748 14.0887 6.21802 13.9501C6.07857 13.8114 6.00019 13.6235 6 13.4274V8.73991C6.00019 8.54378 6.07858 8.35601 6.21802 8.21726C6.35746 8.07851 6.54664 8.00037 6.74392 8H11.4588C11.6561 8.00019 11.8452 8.07813 11.9847 8.21692C12.1242 8.35571 12.2026 8.54373 12.2026 8.73991V13.4274C12.2024 13.6235 12.124 13.8114 11.9845 13.9501C11.8451 14.0887 11.656 14.1668 11.4588 14.167ZM7.18289 12.9915H11.0204V9.1758H7.18289V12.9915Z" fill="#808285"/>
<path d="M33.5537 8.79785H14.6723C14.5879 8.79785 14.5195 8.86582 14.5195 8.94967V10.1915C14.5195 10.2753 14.5879 10.3433 14.6723 10.3433H33.5537C33.6381 10.3433 33.7065 10.2753 33.7065 10.1915V8.94967C33.7065 8.86582 33.6381 8.79785 33.5537 8.79785Z" fill="#808285"/>
<path d="M33.5537 11.8232H14.6723C14.5879 11.8232 14.5195 11.8912 14.5195 11.9751V13.2168C14.5195 13.3007 14.5879 13.3687 14.6723 13.3687H33.5537C33.6381 13.3687 33.7065 13.3007 33.7065 13.2168V11.9751C33.7065 11.8912 33.6381 11.8232 33.5537 11.8232Z" fill="#808285"/>
<path d="M11.4588 23.2425H6.74392C6.5467 23.2423 6.35748 23.1645 6.21802 23.0259C6.07857 22.8873 6.00019 22.6993 6 22.5032V17.8158C6.00019 17.6197 6.07857 17.4318 6.21802 17.2931C6.35748 17.1545 6.5467 17.0764 6.74392 17.0762H11.4588C11.656 17.0764 11.8451 17.1545 11.9845 17.2931C12.124 17.4318 12.2024 17.6197 12.2026 17.8158V22.5032C12.2024 22.6993 12.124 22.8873 11.9845 23.0259C11.8451 23.1645 11.656 23.2423 11.4588 23.2425ZM7.18289 22.0674H11.0204V18.2524H7.18289V22.0674Z" fill="#808285"/>
<path d="M33.5537 17.875H14.6723C14.5879 17.875 14.5195 17.943 14.5195 18.0268V19.2686C14.5195 19.3525 14.5879 19.4205 14.6723 19.4205H33.5537C33.6381 19.4205 33.7065 19.3525 33.7065 19.2686V18.0268C33.7065 17.943 33.6381 17.875 33.5537 17.875Z" fill="#808285"/>
<path d="M33.5537 20.9004H14.6723C14.5879 20.9004 14.5195 20.9684 14.5195 21.0522V22.294C14.5195 22.3779 14.5879 22.4459 14.6723 22.4459H33.5537C33.6381 22.4459 33.7065 22.3779 33.7065 22.294V21.0522C33.7065 20.9684 33.6381 20.9004 33.5537 20.9004Z" fill="#808285"/>
<path d="M11.4588 32.3201H6.74392C6.54664 32.3197 6.35746 32.2415 6.21802 32.1028C6.07858 31.964 6.00019 31.7759 6 31.5798V26.8926C6.00019 26.6965 6.07858 26.5084 6.21802 26.3696C6.35746 26.2309 6.54664 26.1527 6.74392 26.1523H11.4588C11.6561 26.1527 11.8451 26.2309 11.9845 26.3696C12.124 26.5084 12.2024 26.6965 12.2026 26.8926V31.5798C12.2024 31.7759 12.124 31.964 11.9845 32.1028C11.8451 32.2415 11.6561 32.3197 11.4588 32.3201ZM7.18289 31.1449H11.0204V27.3299H7.18289V31.1449Z" fill="#808285"/>
<path d="M33.5537 26.9502H14.6723C14.5879 26.9502 14.5195 27.0182 14.5195 27.102V28.3438C14.5195 28.4277 14.5879 28.4957 14.6723 28.4957H33.5537C33.6381 28.4957 33.7065 28.4277 33.7065 28.3438V27.102C33.7065 27.0182 33.6381 26.9502 33.5537 26.9502Z" fill="#808285"/>
<path d="M33.5537 29.9766H14.6723C14.5879 29.9766 14.5195 30.0446 14.5195 30.1284V31.3702C14.5195 31.454 14.5879 31.522 14.6723 31.522H33.5537C33.6381 31.522 33.7065 31.454 33.7065 31.3702V30.1284C33.7065 30.0446 33.6381 29.9766 33.5537 29.9766Z" fill="#808285"/>
</g>
</svg>
