<svg width="40" height="40" viewBox="0 0 40 40" fill="none" xmlns="http://www.w3.org/2000/svg">
<mask id="mask0_2928_129" style="mask-type:alpha" maskUnits="userSpaceOnUse" x="0" y="0" width="40" height="40">
<path d="M39.96 0H0V39.96H39.96V0Z" fill="#808285"/>
</mask>
<g mask="url(#mask0_2928_129)">
<path d="M20.8862 11.0108C21.7094 11.0093 22.5287 11.1242 23.3197 11.3522C26.0704 12.0523 28.562 13.5278 30.4983 15.6031C32.4346 17.6785 33.7341 20.2664 34.2421 23.0589C34.4244 23.9733 34.4879 24.9075 34.4311 25.8382C34.3686 26.2303 33.9322 26.3679 33.5878 26.4002C31.2225 26.6033 28.5726 26.2421 26.177 26.4002C25.1321 26.3103 25.3709 25.718 25.2669 24.9766C25.1409 24.0144 24.7695 23.1007 24.1884 22.3236C23.6073 21.5464 22.836 20.932 21.9487 20.539C21.4779 20.3366 20.5714 20.2451 20.414 19.7399C20.3247 17.0583 20.4006 14.3599 20.376 11.672C20.3916 11.5253 20.4475 11.3859 20.5376 11.2691C20.6276 11.1524 20.7483 11.063 20.8862 11.0108ZM32.973 24.9372C32.8294 21.9066 31.6415 19.019 29.6111 16.7646C27.5806 14.5102 24.8326 13.0279 21.8335 12.5692V18.8971C22.2551 19.1016 22.702 19.2535 23.118 19.4791C24.1137 20.0319 24.9617 20.816 25.5909 21.7653C26.22 22.7146 26.6116 23.8014 26.7328 24.9337L32.973 24.9372Z" fill="#808285"/>
<path d="M8.87453 16.0273C8.9984 16.0276 9.12072 16.0551 9.23292 16.1076C11.1949 17.9038 13.0163 19.8693 14.9249 21.7294C15.466 22.3569 14.816 22.9403 14.5736 23.5404C14.4462 23.8603 14.3477 24.1908 14.2791 24.5283C14.1175 25.3828 14.44 26.3006 13.2911 26.399C10.8955 26.2416 8.24631 26.6014 5.88025 26.399C5.49305 26.3659 5.08687 26.2211 5.03698 25.7855C4.82616 24.0287 5.55417 21.283 6.27094 19.6717C6.80351 18.4477 7.50793 17.3062 8.36293 16.2813C8.50176 16.1439 8.68117 16.0547 8.87453 16.0273ZM12.7395 24.9366C12.8306 24.2595 12.9972 23.595 13.2363 22.955C13.289 22.8145 13.5258 22.482 13.4717 22.3724L8.97429 17.8806C7.48216 19.9429 6.62114 22.3942 6.49582 24.9366H12.7395Z" fill="#808285"/>
<path d="M17.9742 11.0151C18.5364 10.9708 18.9306 10.9849 19.0887 11.6152L19.0802 19.6447C18.9692 20.2561 18.1253 20.2769 17.6369 20.4757C17.0747 20.6999 16.4746 21.3317 15.885 20.8847L10.3152 15.3151C9.85429 14.6925 10.2393 14.3887 10.7017 14.0072C12.8119 12.3726 15.3247 11.3388 17.9742 11.0151ZM17.6362 12.5722C15.5882 12.8593 13.6439 13.6518 11.9786 14.878L16.4134 19.3692C16.4739 19.4141 16.5245 19.3874 16.5863 19.3692C16.8555 19.3031 17.3354 18.9901 17.6362 18.8974V12.5722Z" fill="#808285"/>
<path d="M24.0026 25.6438C24.0026 26.4877 23.7523 27.3127 23.2834 28.0144C22.8146 28.7161 22.1482 29.263 21.3685 29.5859C20.5889 29.9089 19.7309 29.9935 18.9032 29.8289C18.0755 29.6642 17.3152 29.2576 16.7185 28.6609C16.1217 28.0641 15.7154 27.3039 15.5507 26.4762C15.3861 25.6485 15.4706 24.7905 15.7935 24.0108C16.1165 23.2312 16.6634 22.5651 17.3651 22.0962C18.0668 21.6273 18.8917 21.377 19.7357 21.377C20.8673 21.3772 21.9525 21.8269 22.7526 22.627C23.5528 23.4272 24.0024 24.5122 24.0026 25.6438ZM22.5409 25.6438C22.5409 25.089 22.3764 24.5466 22.0682 24.0853C21.76 23.624 21.3219 23.2645 20.8093 23.0521C20.2968 22.8398 19.7328 22.7844 19.1886 22.8926C18.6445 23.0008 18.1446 23.2679 17.7523 23.6602C17.3599 24.0524 17.0927 24.552 16.9844 25.0961C16.8761 25.6403 16.9315 26.2045 17.1437 26.7171C17.356 27.2297 17.7154 27.6677 18.1766 27.976C18.6379 28.2843 19.1801 28.449 19.7349 28.4491C20.4786 28.4492 21.1919 28.154 21.7181 27.6284C22.2442 27.1028 22.5402 26.3895 22.5409 25.6458V25.6438Z" fill="#808285"/>
<path d="M20.7741 24.0741C20.9262 24.0423 21.0844 24.0595 21.2259 24.1235C21.3674 24.1875 21.485 24.2951 21.5615 24.4303C21.638 24.5655 21.6695 24.7214 21.6515 24.8757C21.6335 25.0299 21.5669 25.1745 21.4614 25.2884C20.8953 25.927 20.2876 26.5273 19.642 27.0854C19.541 27.1566 19.4238 27.2013 19.301 27.2154C19.1782 27.2295 19.0538 27.2125 18.9393 27.166C18.4922 26.8422 18.0797 26.4732 17.7081 26.0649C17.6531 25.9867 17.6146 25.8981 17.595 25.8045C17.5754 25.7108 17.5751 25.6141 17.5942 25.5204C17.6133 25.4266 17.6513 25.3378 17.706 25.2593C17.7606 25.1807 17.8307 25.1142 17.912 25.0637C18.6147 24.6118 19.0363 25.4931 19.2359 25.4579C19.6266 25.1916 20.3455 24.1563 20.7741 24.0741Z" fill="#808285"/>
</g>
</svg>
