<svg width="40" height="40" viewBox="0 0 40 40" fill="none" xmlns="http://www.w3.org/2000/svg">
<mask id="mask0_2928_249" style="mask-type:alpha" maskUnits="userSpaceOnUse" x="0" y="0" width="40" height="40">
<path d="M39.96 0H0V39.96H39.96V0Z" fill="#D9D9D9"/>
</mask>
<g mask="url(#mask0_2928_249)">
<path d="M35.5133 18.7735C35.5512 19.3111 35.5512 19.8507 35.5133 20.3883C35.0737 25.545 29.2898 28.7103 24.6323 26.4567C23.3447 25.833 22.2585 24.8596 21.4974 23.6481C20.7363 22.4367 20.3312 21.0358 20.3281 19.6051C20.3251 18.1744 20.7241 16.7719 21.48 15.5572C22.2358 14.3425 23.3181 13.3646 24.603 12.7353C29.262 10.505 35.035 13.5858 35.5133 18.7735ZM33.6604 19.5953C33.6604 18.4607 33.324 17.3515 32.6937 16.4081C32.0633 15.4647 31.1674 14.7294 30.1192 14.2952C29.071 13.861 27.9176 13.7476 26.8048 13.9689C25.6921 14.1903 24.6698 14.7364 23.8675 15.5387C23.0652 16.3409 22.5189 17.3632 22.2976 18.476C22.0762 19.5888 22.1899 20.7421 22.6241 21.7903C23.0583 22.8385 23.7934 23.7347 24.7368 24.365C25.6802 24.9954 26.7893 25.3318 27.9239 25.3318C28.6773 25.3318 29.4232 25.1832 30.1192 24.895C30.8152 24.6067 31.4477 24.1842 31.9804 23.6515C32.5131 23.1188 32.9355 22.4863 33.2238 21.7903C33.5121 21.0943 33.6604 20.3486 33.6604 19.5953Z" fill="#808285"/>
<path d="M31.9727 22.4371L30.1123 22.8084C30.0145 22.3692 29.7854 21.9699 29.4554 21.6641C29.1253 21.3584 28.7099 21.1603 28.2645 21.0964C27.8192 21.0324 27.365 21.1059 26.9622 21.3064C26.5595 21.507 26.2273 21.8251 26.0099 22.2191C25.9324 22.3625 25.7991 22.8446 25.7247 22.8678L23.9609 22.5298C24.1422 21.6071 24.6358 20.7751 25.3584 20.1735C26.0811 19.5719 26.9889 19.2378 27.9292 19.2268C28.8694 19.2159 29.7846 19.5291 30.5211 20.1137C31.2575 20.6984 31.7701 21.5189 31.9727 22.4371Z" fill="#808285"/>
<path d="M25.8439 18.4466C26.3564 18.4466 26.7719 18.0312 26.7719 17.5187C26.7719 17.0062 26.3564 16.5908 25.8439 16.5908C25.3315 16.5908 24.916 17.0062 24.916 17.5187C24.916 18.0312 25.3315 18.4466 25.8439 18.4466Z" fill="#808285"/>
<path d="M29.8979 18.4451C30.4099 18.4451 30.825 18.03 30.825 17.5179C30.825 17.0059 30.4099 16.5908 29.8979 16.5908C29.3858 16.5908 28.9707 17.0059 28.9707 17.5179C28.9707 18.03 29.3858 18.4451 29.8979 18.4451Z" fill="#808285"/>
<path d="M19.1852 18.7735C19.2232 19.3111 19.2232 19.8507 19.1852 20.3883C18.7456 25.545 12.9619 28.7103 8.30438 26.4567C7.01681 25.833 5.93034 24.8596 5.16927 23.6481C4.4082 22.4367 4.00309 21.0358 4.00002 19.6051C3.99695 18.1744 4.39619 16.7719 5.15205 15.5572C5.90791 14.3425 6.98998 13.3646 8.27485 12.7353C12.9339 10.505 18.7069 13.5858 19.1852 18.7735ZM17.3325 19.5953C17.3325 18.4607 16.9959 17.3515 16.3656 16.4081C15.7352 15.4647 14.8393 14.7294 13.791 14.2952C12.7428 13.861 11.5895 13.7476 10.4767 13.9689C9.36393 14.1903 8.34166 14.7364 7.53938 15.5387C6.73711 16.3409 6.19081 17.3632 5.96947 18.476C5.74812 19.5888 5.86175 20.7421 6.29594 21.7903C6.73013 22.8385 7.46547 23.7347 8.40885 24.365C9.35222 24.9954 10.4612 25.3318 11.5958 25.3318C12.3491 25.3318 13.0951 25.1832 13.791 24.895C14.487 24.6067 15.1195 24.1842 15.6522 23.6515C16.1849 23.1188 16.6074 22.4863 16.8957 21.7903C17.184 21.0943 17.3325 20.3486 17.3325 19.5953Z" fill="#808285"/>
<path d="M9.51777 18.4466C10.0303 18.4466 10.4457 18.0312 10.4457 17.5187C10.4457 17.0062 10.0303 16.5908 9.51777 16.5908C9.00529 16.5908 8.58984 17.0062 8.58984 17.5187C8.58984 18.0312 9.00529 18.4466 9.51777 18.4466Z" fill="#808285"/>
<path d="M13.5717 18.4451C14.0837 18.4451 14.4988 18.03 14.4988 17.5179C14.4988 17.0059 14.0837 16.5908 13.5717 16.5908C13.0596 16.5908 12.6445 17.0059 12.6445 17.5179C12.6445 18.03 13.0596 18.4451 13.5717 18.4451Z" fill="#808285"/>
<path d="M7.60156 20.0952L9.462 19.7239C9.55964 20.1631 9.78872 20.5619 10.1187 20.8678C10.4487 21.1736 10.864 21.3719 11.3094 21.4359C11.7547 21.5 12.209 21.4271 12.6119 21.2266C13.0147 21.0261 13.347 20.7075 13.5644 20.3136C13.6419 20.1694 13.7752 19.6873 13.8496 19.6641L15.6134 20.0029C15.4313 20.9249 14.9374 21.756 14.2147 22.3569C13.4921 22.9578 12.5847 23.292 11.6449 23.3028C10.7051 23.3136 9.79025 23.0004 9.05395 22.4163C8.31765 21.8322 7.80483 21.0128 7.60156 20.0952Z" fill="#808285"/>
</g>
</svg>
