<svg xmlns="http://www.w3.org/2000/svg" width="39.942" height="39.956" viewBox="0 0 39.942 39.956">
  <g id="Group_53" data-name="Group 53" transform="translate(-2672.535 -7757.36)">
    <path id="Path_40" data-name="Path 40" d="M2674.579,7759.394c-.133.832.346,2.847-.4,3.344-.769.512-1.481-.076-1.573-.909-.118-1.059-.2-3.351.725-4.013.724-.52,4.221-.7,4.6.135C2678.811,7759.9,2675.572,7759.337,2674.579,7759.394Z" fill="#808285"/>
    <g id="Group_52" data-name="Group 52">
      <path id="Path_41" data-name="Path 41" d="M2692.031,7761.4a3.2,3.2,0,0,1,1.879.287c3.711,1.6,7.583,4.82,11.341,6.537a3.159,3.159,0,0,1,1.54,2.536c.359,4.2-.283,8.9,0,13.154-.169,1.953-1.213,2.34-2.677,3.239-2.918,1.79-6.314,3.811-9.333,5.389-1.793.937-2.29,1.124-4.167.178-3.223-1.627-7.468-4.092-10.5-6.06a3.15,3.15,0,0,1-1.855-2.746c.282-4.254-.36-8.955,0-13.154.153-1.786,1.118-2.225,2.463-3.059,3.4-2.109,7.027-3.881,10.417-6.014A3.273,3.273,0,0,1,2692.031,7761.4Zm12.783,10.087c-1.283.387-2.646,1.739-3.85,2.134a1,1,0,0,1-1.148-1.546l3.813-2.233v-.259l-10.876-6.221a.929.929,0,0,0-.655.076,29.673,29.673,0,0,0-3.015,1.717c-2.31,1.3-4.643,2.63-6.918,3.992-.12.072-.951.528-.88.63l11.163,6.38c.207.039.552-.209.756-.31.76-.378,3.913-2.848,4.245-1.136a1.37,1.37,0,0,1-.119.926c-.369.619-3.193,1.685-3.821,2.357v12.948l10.826-6.2a1.461,1.461,0,0,0,.479-.573Zm-13.277,19.455V7778l-11.3-6.507v12.554a3.449,3.449,0,0,0,.359.6Z" fill="#808285"/>
      <path id="Path_42" data-name="Path 42" d="M2712.139,7762.644a1.016,1.016,0,0,1-1.573-.259,24.786,24.786,0,0,1-.1-2.991c-.969-.115-3.765.558-3.4-1.217.208-1,2.651-.832,3.466-.759a1.925,1.925,0,0,1,1.711,1.049C2712.54,7759.074,2712.6,7762.182,2712.139,7762.644Z" fill="#808285"/>
      <path id="Path_43" data-name="Path 43" d="M2674.579,7795.282c.811.114,2.95-.356,3.35.526.385.85-.25,1.378-1.042,1.451-.969.089-3.133.169-3.806-.545-.591-.627-.626-3.158-.445-3.969a1.02,1.02,0,0,1,1.746-.486C2674.821,7792.833,2674.465,7794.524,2674.579,7795.282Z" fill="#808285"/>
      <path id="Path_44" data-name="Path 44" d="M2712.142,7792.16c.427.392.379,3.29.208,3.887a1.68,1.68,0,0,1-.933,1.039,11.657,11.657,0,0,1-3.385.17.987.987,0,0,1-.121-1.967c.772-.121,1.757.071,2.556-.007a22.973,22.973,0,0,1,.1-2.86A1.048,1.048,0,0,1,2712.142,7792.16Z" fill="#808285"/>
    </g>
  </g>
</svg>
