<svg width="40" height="40" viewBox="0 0 40 40" fill="none" xmlns="http://www.w3.org/2000/svg">
<mask id="mask0_2928_150" style="mask-type:alpha" maskUnits="userSpaceOnUse" x="0" y="0" width="40" height="40">
<path d="M39.96 0H0V39.96H39.96V0Z" fill="#D9D9D9"/>
</mask>
<g mask="url(#mask0_2928_150)">
<path d="M33.1397 12.6456C32.7567 12.2895 32.2742 12.0679 31.7618 12.0133C31.2493 11.9587 30.7333 12.0735 30.2881 12.3414C29.8327 12.6044 29.4683 13.0082 29.2459 13.496C29.0234 13.9837 28.954 14.5312 29.0474 15.0618C29.0839 15.2459 29.1435 15.4243 29.2247 15.5925C29.2474 15.6435 29.2687 15.6917 29.2867 15.7372L23.3044 21.8708C22.8144 21.6357 22.2678 21.5567 21.7342 21.644C21.572 21.6823 21.4152 21.742 21.2676 21.8214C21.2169 21.8455 21.1469 21.8783 21.0875 21.9038L18.6687 19.4042C18.6941 19.3353 18.7281 19.2491 18.7521 19.1891C18.9995 18.6422 19.0409 18.0198 18.8684 17.443C18.6958 16.8661 18.3216 16.3764 17.8187 16.0693C17.3418 15.802 16.8001 15.684 16.2595 15.7298C15.7189 15.7755 15.2029 15.9832 14.7745 16.3271C14.3939 16.6706 14.1279 17.1295 14.0144 17.6385C13.9009 18.1474 13.9457 18.6804 14.1424 19.1615C14.1712 19.2459 14.2092 19.3267 14.2558 19.4022L14.2591 19.4075L9.62817 24.1908L9.61014 24.179C9.5351 24.1284 9.45537 24.0857 9.37213 24.0515C9.01574 23.92 8.63537 23.8729 8.25906 23.9138C7.88275 23.9547 7.52013 24.0825 7.198 24.2877C6.87946 24.4852 6.60784 24.7541 6.40315 25.0745C6.19846 25.3948 6.06591 25.7585 6.01527 26.1389C5.99491 26.3548 5.99491 26.5725 6.01527 26.7884C6.05635 27.2306 6.21395 27.6528 6.4709 28.0089C6.72786 28.365 7.07432 28.6413 7.47268 28.8081C7.78548 28.936 8.11902 29.0013 8.4554 28.9999C9.06733 29.0043 9.66264 28.794 10.1442 28.4036C10.4816 28.1182 10.7357 27.7416 10.8781 27.3157C11.0206 26.8898 11.0458 26.4313 10.9509 25.9915C10.9148 25.8072 10.8552 25.6288 10.7736 25.4608C10.7509 25.4091 10.7289 25.3609 10.7116 25.3147L15.3539 20.5291C15.7018 20.7061 16.0845 20.798 16.4723 20.798C16.8601 20.798 17.2427 20.7061 17.5907 20.5291L19.9995 23.0224C19.9755 23.0913 19.9442 23.1817 19.9202 23.2485C19.845 23.4318 19.7883 23.6227 19.7508 23.8179C19.6683 24.289 19.7224 24.7747 19.9061 25.2141C20.0899 25.6536 20.3951 26.0272 20.7835 26.288C21.2153 26.56 21.7113 26.7039 22.217 26.7039C22.7227 26.7039 23.2186 26.56 23.6504 26.288C24.0436 26.0168 24.3506 25.6316 24.5329 25.1808C24.7152 24.73 24.7647 24.2334 24.6751 23.7536C24.6416 23.5734 24.5832 23.3991 24.5017 23.2361C24.4751 23.1768 24.4351 23.0892 24.4131 23.0237L30.3795 16.8604C30.4321 16.8832 30.4881 16.9094 30.5308 16.9294C30.6578 16.9939 30.7901 17.0465 30.9262 17.0866C31.4729 17.2174 32.0463 17.1526 32.5529 16.9032C33.0596 16.6537 33.4694 16.2342 33.7157 15.7129C33.9762 15.2113 34.0612 14.632 33.9562 14.0731C33.8512 13.5142 33.5628 13.0101 33.1397 12.6456ZM9.45416 26.4616C9.4543 26.6574 9.39821 26.8486 9.29306 27.0115C9.18791 27.1743 9.0384 27.3013 8.86343 27.3762C8.68846 27.4512 8.49591 27.4709 8.31013 27.4328C8.12435 27.3946 7.95372 27.3003 7.81978 27.1619C7.68585 27.0234 7.59464 26.8471 7.55772 26.6551C7.5208 26.463 7.53983 26.2639 7.61237 26.083C7.68492 25.9021 7.80772 25.7478 7.96526 25.6391C8.12281 25.5305 8.30803 25.4724 8.49744 25.4726C8.75102 25.4731 8.99404 25.5773 9.17334 25.7626C9.35265 25.948 9.45364 26.1995 9.45416 26.4616ZM16.4599 19.2194C16.271 19.2194 16.0863 19.1617 15.9291 19.0532C15.772 18.9447 15.6496 18.7905 15.5773 18.61C15.505 18.4295 15.486 18.2308 15.5229 18.0393C15.5598 17.8477 15.6507 17.6716 15.7844 17.5335C15.918 17.3954 16.0882 17.3014 16.2735 17.2633C16.4589 17.2252 16.6509 17.2447 16.8255 17.3195C17.0001 17.3942 17.1493 17.5208 17.2543 17.6832C17.3593 17.8456 17.4153 18.0368 17.4153 18.2321C17.4151 18.494 17.3144 18.7449 17.1353 18.93C16.9562 19.1152 16.7133 19.2192 16.4599 19.2194ZM21.2602 24.175C21.2601 23.9799 21.3159 23.7891 21.4207 23.6268C21.5255 23.4645 21.6744 23.3378 21.8487 23.263C22.023 23.1883 22.2149 23.1688 22.4 23.2068C22.5851 23.2448 22.7552 23.3385 22.8887 23.4764C23.0222 23.6143 23.1131 23.7901 23.15 23.9815C23.1868 24.1728 23.168 24.3713 23.0958 24.5515C23.0236 24.7318 22.9013 24.8856 22.7444 24.994C22.5875 25.1024 22.403 25.1603 22.2143 25.1603C22.0888 25.1606 21.9645 25.1353 21.8485 25.0859C21.7325 25.0365 21.627 24.9641 21.5381 24.8726C21.4492 24.781 21.3787 24.6723 21.3304 24.5525C21.2821 24.4328 21.2572 24.3047 21.2569 24.175H21.2602ZM32.4543 14.5785C32.4541 14.774 32.3979 14.965 32.2928 15.1274C32.1877 15.2898 32.0383 15.4165 31.8636 15.4912C31.6889 15.5659 31.4967 15.5852 31.3113 15.547C31.1259 15.5088 30.9556 15.4147 30.8219 15.2765C30.6883 15.1382 30.5973 14.962 30.5605 14.7703C30.5236 14.5787 30.5426 14.3802 30.615 14.1996C30.6874 14.0191 30.8099 13.8647 30.9671 13.7561C31.1243 13.6475 31.3091 13.5895 31.4982 13.5895C31.7512 13.5908 31.9934 13.6956 32.1719 13.8809C32.3505 14.0662 32.4508 14.317 32.4509 14.5785H32.4543Z" fill="#808285"/>
</g>
</svg>
