<svg width="40" height="40" viewBox="0 0 40 40" fill="none" xmlns="http://www.w3.org/2000/svg">
<mask id="mask0_2928_122" style="mask-type:alpha" maskUnits="userSpaceOnUse" x="0" y="0" width="40" height="40">
<path d="M39.96 0H0V39.96H39.96V0Z" fill="#D9D9D9"/>
</mask>
<g mask="url(#mask0_2928_122)">
<path d="M32.9885 17.1512L32.8967 17.1359L32.89 17.0442C32.6054 13.7638 31.1036 10.7085 28.6799 8.47952C26.2562 6.25059 23.0861 5.00942 19.7934 5.00005C16.5006 4.99068 13.3235 6.21383 10.8871 8.42893C8.45079 10.644 6.93161 13.6908 6.62841 16.9696L6.61908 17.0766H6.34982V17.1828L6.25807 17.2031C5.42191 17.3554 4.65929 17.7791 4.08827 18.4087C3.51725 19.0382 3.16968 19.8384 3.09938 20.6855C2.96687 22.86 2.96687 25.0406 3.09938 27.2152C3.14886 27.9767 3.42848 28.705 3.90123 29.3041C4.37399 29.9032 5.01759 30.3446 5.74677 30.5698C5.91237 30.6119 6.08023 30.6447 6.24957 30.6677L6.34982 30.6818V33.3845C6.35072 34.0433 6.61282 34.6749 7.07869 35.1408C7.54455 35.6067 8.17613 35.869 8.83496 35.8699H30.3861C31.045 35.8692 31.6767 35.6071 32.1426 35.1412C32.6085 34.6753 32.8706 34.0434 32.8713 33.3845V30.7108L32.9681 30.6938C35.1271 30.3175 36.2525 29.2006 36.4096 27.2794C36.5477 25.0835 36.5477 22.8814 36.4096 20.6855C36.3307 19.7935 35.9478 18.9558 35.325 18.3124C34.7022 17.6691 33.8774 17.2591 32.9885 17.1512ZM6.34982 28.6824L6.18674 28.6123C6.08413 28.5702 5.98479 28.5202 5.88949 28.4635C5.65876 28.316 5.46624 28.1162 5.32775 27.88C5.18927 27.6437 5.10873 27.3778 5.09277 27.1044C5.02193 25.9732 5.01882 24.8387 5.08344 23.7071C5.12081 22.704 5.15819 21.6686 5.10044 20.6996C5.16062 20.3937 5.28993 20.1059 5.4785 19.8577C5.66708 19.6095 5.90993 19.4075 6.18845 19.2675L6.34982 19.2016V28.6824ZM8.66 16.9518C8.80695 15.4637 9.25788 14.0213 9.98486 12.7146C10.7118 11.4079 11.6994 10.2645 12.8863 9.35499C14.1017 8.41955 15.4939 7.73991 16.9789 7.35689C18.464 6.97386 20.0113 6.89537 21.5275 7.1263C23.9381 7.52885 26.152 8.70578 27.834 10.4789C29.5161 12.252 30.5748 14.5249 30.8499 16.9534L30.8617 17.0807H8.64305L8.66 16.9518ZM7.98054 19.2132H9.08467V28.551C9.06824 28.603 9.03954 28.6505 9.00095 28.6891C8.96236 28.7276 8.91504 28.7564 8.863 28.7728H7.98054V19.2132ZM31.2354 33.3973C31.2354 33.6226 31.1459 33.8386 30.9867 33.9978C30.8274 34.1571 30.6114 34.2467 30.3861 34.2467H8.83413C8.60887 34.2467 8.39285 34.1571 8.23357 33.9978C8.07429 33.8386 7.98479 33.6226 7.98479 33.3973V30.8128H8.10542C8.78893 30.8406 9.47355 30.8192 10.154 30.749C10.3739 30.7153 10.5786 30.6163 10.7416 30.4649C10.9045 30.3134 11.0182 30.1165 11.0679 29.8996L11.0798 18.7147H28.4326V29.8046C28.4669 30.0726 28.5982 30.3188 28.8017 30.4964C29.0052 30.674 29.2667 30.7706 29.5368 30.7684C30.1101 30.8177 30.6273 30.8418 31.1174 30.8435H31.2354V33.3973ZM31.2354 28.777H30.6409C30.5889 28.7606 30.5415 28.7318 30.5029 28.6932C30.4644 28.6546 30.4357 28.6071 30.4192 28.5551V19.2178H31.2354V28.777ZM34.4162 27.1061C34.4004 27.3795 34.32 27.6454 34.1815 27.8816C34.043 28.1179 33.8504 28.3178 33.6195 28.4651C33.4297 28.5734 33.229 28.6614 33.0207 28.7276L32.8679 28.777V19.2149H33.0794C33.6213 19.2149 34.4035 20.1714 34.4086 20.6946C34.3508 21.6696 34.3882 22.7069 34.4255 23.7108C34.4905 24.8404 34.488 25.9726 34.4179 27.1019L34.4162 27.1061Z" fill="#808285"/>
<path d="M23.7109 26.1329C23.7105 25.9455 23.6663 25.7609 23.5816 25.5937C23.4969 25.4266 23.3742 25.2818 23.2233 25.1707L18.7685 21.9048C18.5912 21.7733 18.3807 21.6937 18.1607 21.6751C17.9406 21.6564 17.7197 21.6997 17.5227 21.7995C17.3257 21.8993 17.1604 22.0519 17.0453 22.2403C16.9303 22.4288 16.8699 22.6457 16.8711 22.8666V29.3988C16.8706 29.6193 16.9314 29.8354 17.0467 30.0233C17.1621 30.2113 17.3275 30.3635 17.5243 30.4629C17.7213 30.5607 17.9413 30.6028 18.1606 30.5849C18.3798 30.5669 18.59 30.4894 18.7685 30.3609L23.2225 27.0954C23.3737 26.9846 23.4966 26.8396 23.5815 26.6724C23.6663 26.5053 23.7107 26.3203 23.7109 26.1329ZM18.5035 28.5299V23.7362L21.7735 26.132L18.5035 28.5299Z" fill="#808285"/>
</g>
</svg>
