<svg width="40" height="40" viewBox="0 0 40 40" fill="none" xmlns="http://www.w3.org/2000/svg">
<rect x="8.32812" y="9.90137" width="9.83558" height="2.75392" rx="1.37696" fill="#808285"/>
<rect x="8.32812" y="15.8027" width="9.83558" height="2.75392" rx="1.37696" fill="#808285"/>
<path d="M25.9535 18.6588C26.4354 18.2042 27.1941 18.2268 27.6488 18.7086C28.1034 19.1905 28.0818 19.9493 27.6 20.404L24.0726 23.7321C23.7964 23.9927 23.4293 24.095 23.0804 24.0456C22.8071 24.0405 22.5335 23.944 22.3119 23.7497L20.2445 21.9372C19.7467 21.5005 19.6969 20.7429 20.1332 20.2448C20.5699 19.7466 21.3283 19.6967 21.8265 20.1334L23.1556 21.2975L25.9535 18.6588Z" fill="#808285"/>
<path d="M24.0646 4C26.672 4 28.7857 6.11367 28.7857 8.72101V13.1961C28.06 12.7515 27.2669 12.4064 26.4251 12.1796V8.72101C26.4251 7.41734 25.3683 6.36051 24.0646 6.36051H8.72108C7.41739 6.36051 6.36054 7.41734 6.36054 8.72101V30.359C6.36054 31.6219 7.3524 32.6532 8.59967 32.7164L8.72108 32.7195H24.0646L24.186 32.7164C25.4333 32.6532 26.4251 31.6219 26.4251 30.359V29.654C27.2669 29.4271 28.06 29.0821 28.7857 28.6374V30.359C28.7857 32.9663 26.672 35.08 24.0646 35.08H8.72108C6.1137 35.08 4 32.9663 4 30.359V8.72101C4 6.11367 6.1137 4 8.72108 4H24.0646Z" fill="#808285"/>
<path d="M15.0255 21.3105C15.0668 22.2754 15.2588 23.201 15.5792 24.0645H9.70511C8.94462 24.0645 8.32812 23.448 8.32812 22.6875C8.32812 21.927 8.94462 21.3105 9.70511 21.3105H15.0255Z" fill="#808285"/>
<path d="M24.0644 11.8682C29.0618 11.8682 33.1131 15.9194 33.1131 20.9168C33.1131 22.5105 32.7004 24.0076 31.977 25.3081L34.6222 27.9533C35.16 28.4911 35.16 29.3631 34.6222 29.9008C34.0845 30.4384 33.2128 30.4384 32.6751 29.9008L30.2727 27.4985C28.6523 29.0274 26.4681 29.9654 24.0644 29.9654C19.0669 29.9654 15.0156 25.9142 15.0156 20.9168C15.0156 15.9194 19.0669 11.8682 24.0644 11.8682ZM24.0644 14.2287C20.3706 14.2287 17.3762 17.223 17.3762 20.9168C17.3762 24.6105 20.3706 27.6049 24.0644 27.6049C27.7582 27.6049 30.7526 24.6105 30.7526 20.9168C30.7526 17.223 27.7582 14.2287 24.0644 14.2287Z" fill="#808285"/>
</svg>
