<svg width="40" height="40" viewBox="0 0 40 40" fill="none" xmlns="http://www.w3.org/2000/svg">
<mask id="mask0_2928_172" style="mask-type:alpha" maskUnits="userSpaceOnUse" x="0" y="0" width="40" height="40">
<path d="M39.96 0H0V39.96H39.96V0Z" fill="#D9D9D9"/>
</mask>
<g mask="url(#mask0_2928_172)">
<path d="M5.48271 23.6646C5.20241 23.2257 4.98085 22.7519 4.82372 22.2554C4.16096 20.4376 3.8932 18.4998 4.03838 16.5703C4.18355 14.6409 4.73827 12.7641 5.66557 11.0659C6.59288 9.36775 7.87151 7.88694 9.41618 6.72171C10.9609 5.55648 12.7361 4.73384 14.6237 4.30862C15.1979 4.16666 15.7823 4.07027 16.3717 4.02054C16.508 3.99288 16.6484 3.99311 16.7845 4.02151C16.9206 4.04991 17.0495 4.10573 17.1634 4.18557C17.2772 4.26542 17.3736 4.36805 17.4466 4.48636C17.5197 4.60466 17.5679 4.73651 17.5883 4.87405C17.6087 5.01159 17.6009 5.15175 17.5653 5.28616C17.5297 5.42058 17.4672 5.54635 17.3814 5.65579C17.2956 5.76523 17.1885 5.8562 17.0665 5.92288C16.9444 5.98956 16.8101 6.0304 16.6717 6.04348C15.8748 6.14623 15.0838 6.28993 14.3017 6.47366C12.818 6.91676 11.4379 7.65228 10.2427 8.63675C9.04743 9.62122 8.06119 10.8347 7.34203 12.2061C6.62286 13.5774 6.18527 15.0786 6.05504 16.6216C5.92481 18.1646 6.10452 19.718 6.58366 21.1905C6.85915 21.7697 7.07401 22.376 7.22472 22.9995C7.20789 23.1934 7.13677 23.3789 7.01958 23.5342C6.90239 23.6895 6.74385 23.8086 6.56206 23.878C6.38027 23.9474 6.18264 23.964 5.99175 23.9263C5.80085 23.8886 5.62444 23.7979 5.48271 23.6646Z" fill="#808285"/>
<path d="M20.6065 19.1681C20.3335 17.7681 20.8185 16.3121 19.8435 15.1261C19.5264 14.7274 19.1093 14.4202 18.6345 14.2354C18.1598 14.0506 17.6446 13.9949 17.1414 14.0743C16.6382 14.1537 16.1651 14.3651 15.7703 14.6871C15.3756 15.0091 15.0734 15.4303 14.8945 15.9073C14.7087 16.5864 14.6411 17.2922 14.6945 17.9942C14.5143 20.6695 13.4506 23.2088 11.6705 25.214C11.1761 25.78 10.6363 26.3051 10.0565 26.7833C9.05648 27.3373 8.07849 26.151 8.86849 25.149C9.51549 24.329 10.3455 23.76 10.9895 22.816C12.3635 20.798 12.4895 19.3863 12.6535 17.0343C12.638 15.7423 13.1298 14.4955 14.0232 13.5621C14.9165 12.6287 16.1402 12.0828 17.4316 12.0416C18.723 12.0004 19.979 12.4674 20.9301 13.3419C21.8812 14.2164 22.4515 15.429 22.5185 16.7193C22.5605 17.1229 22.5389 17.5305 22.4545 17.9273C22.3145 18.0963 21.7645 18.2562 21.5825 18.4542L20.6065 19.1681Z" fill="#808285"/>
<path d="M17.4077 16.1926C17.5451 16.1628 17.6874 16.1638 17.8246 16.195C17.9618 16.2262 18.0904 16.2869 18.2015 16.3732C18.3126 16.4595 18.4033 16.5693 18.4675 16.6945C18.5316 16.8197 18.5675 16.9573 18.5726 17.0978C18.8936 20.5138 17.2246 24.7439 15.0726 27.3439C14.5736 27.9647 14.0193 28.5389 13.4166 29.0597C13.2406 29.1727 13.0338 29.228 12.8248 29.2179C12.6159 29.2079 12.4154 29.133 12.251 29.0036C12.0866 28.8742 11.9666 28.697 11.9078 28.4963C11.8489 28.2955 11.8542 28.0816 11.9227 27.884C12.3169 27.3324 12.7655 26.8215 13.2617 26.3595C15.1056 24.2189 16.2487 21.5642 16.5366 18.7536C16.5866 18.2246 16.5197 17.3945 16.6157 16.9235C16.6749 16.7445 16.7786 16.5836 16.9172 16.4557C17.0557 16.3279 17.2245 16.2373 17.4077 16.1926Z" fill="#808285"/>
<path d="M27.1608 16.6858C26.4742 16.686 25.7903 16.7716 25.1248 16.9407C24.9937 15.4084 24.4002 13.9523 23.4228 12.7649C22.4454 11.5775 21.1304 10.7149 19.6518 10.2917C19.2278 10.1737 18.7658 10.1498 18.3768 10.0398C18.2139 10.0001 18.0633 9.92055 17.9387 9.80833C17.8141 9.69611 17.7192 9.55462 17.6627 9.39671C17.6062 9.2388 17.5898 9.06936 17.615 8.90355C17.6401 8.73773 17.706 8.58105 17.8068 8.447C18.2548 7.847 18.9538 8.05868 19.5898 8.18968C21.5847 8.63018 23.39 9.68839 24.7491 11.2136C26.1083 12.7388 26.9522 14.6535 27.1608 16.6858Z" fill="#808285"/>
<path d="M11.6756 10.1458C11.8487 10.1062 12.0291 10.1125 12.1991 10.1638C12.369 10.2152 12.5227 10.31 12.645 10.4387C12.7673 10.5675 12.8539 10.7258 12.8965 10.8982C12.939 11.0706 12.9359 11.2508 12.8876 11.4216C12.8116 11.7876 12.1165 12.3051 11.8515 12.6121C11.1867 13.3946 10.6842 14.3015 10.3731 15.28C10.0621 16.2586 9.9487 17.289 10.0396 18.3118C10.0716 18.7408 10.2486 19.198 10.2876 19.592C10.4106 20.849 8.68758 21.3327 8.26158 19.8347C7.95708 18.5488 7.91797 17.2144 8.14665 15.9128C8.37532 14.6113 8.867 13.37 9.59159 12.2649C9.94159 11.7429 11.1026 10.2658 11.6756 10.1458Z" fill="#808285"/>
<path d="M22.6915 5.12109C23.1998 5.17499 23.6866 5.35504 24.1075 5.64501C26.026 6.70578 27.6658 8.20604 28.8925 10.023C29.1488 10.3751 29.3686 10.7523 29.5485 11.1489C29.5999 11.3238 29.6033 11.5094 29.5582 11.686C29.5132 11.8627 29.4213 12.0239 29.2924 12.1528C29.1635 12.2818 29.0023 12.3739 28.8256 12.419C28.649 12.464 28.4634 12.4606 28.2885 12.4092C27.7885 12.3092 27.3275 11.297 27.0215 10.876C26.1407 9.64439 25.0328 8.59214 23.7575 7.77587C23.1495 7.49948 22.5726 7.15959 22.0365 6.76122C21.9217 6.6219 21.8465 6.45425 21.8187 6.27587C21.7908 6.09749 21.8115 5.91472 21.8785 5.74706C21.9454 5.57941 22.0562 5.43289 22.1993 5.32275C22.3423 5.2126 22.5123 5.14298 22.6915 5.12109Z" fill="#808285"/>
<path d="M35.5584 26.8349C35.5584 28.4656 35.0748 30.0596 34.1689 31.4154C33.2629 32.7713 31.9752 33.8285 30.4686 34.4525C28.962 35.0766 27.3042 35.2399 25.7049 34.9218C24.1055 34.6037 22.6364 33.818 21.4833 32.665C20.3302 31.5119 19.5449 30.0426 19.2268 28.4433C18.9086 26.8439 19.072 25.1862 19.696 23.6796C20.3201 22.173 21.3768 20.8854 22.7327 19.9794C24.0886 19.0734 25.6827 18.5898 27.3134 18.5898C29.5 18.59 31.597 19.4591 33.1432 21.0053C34.6893 22.5515 35.5581 24.6482 35.5584 26.8349ZM31.5914 23.393C31.3449 23.1457 31.0207 22.9909 30.6734 22.9545C30.3261 22.9181 29.9768 23.002 29.6844 23.1928L25.7284 27.1259C24.8364 26.3729 24.1194 24.9188 22.7284 25.5258C22.5306 25.6222 22.3563 25.7607 22.2177 25.9316C22.0791 26.1024 21.9795 26.3016 21.926 26.515C21.8725 26.7285 21.8662 26.9513 21.9077 27.1674C21.9493 27.3835 22.0375 27.5877 22.1664 27.766C23.0082 28.7257 23.9136 29.6274 24.8764 30.4657C25.1398 30.6483 25.4551 30.7413 25.7755 30.7309C26.0959 30.7204 26.4044 30.6075 26.6554 30.4081L31.7074 25.3422C31.9211 25.0555 32.0266 24.7021 32.0054 24.3451C31.9842 23.9882 31.8376 23.6504 31.5914 23.391V23.393Z" fill="#808285"/>
</g>
</svg>
