<svg width="40" height="40" viewBox="0 0 40 40" fill="none" xmlns="http://www.w3.org/2000/svg">
<mask id="mask0_2928_156" style="mask-type:alpha" maskUnits="userSpaceOnUse" x="0" y="0" width="40" height="40">
<path d="M39.96 0H0V39.96H39.96V0Z" fill="#808285"/>
</mask>
<g mask="url(#mask0_2928_156)">
<path d="M4.21228 34.7877C4.15657 34.7197 4.11695 34.6401 4.09636 34.5546C4.07576 34.4691 4.07472 34.38 4.09335 34.2941L6.46501 27.8868C4.39554 24.6703 3.58835 20.8025 4.19865 17.0268C4.80895 13.2512 6.79368 9.83425 9.77109 7.43361C12.7485 5.03297 16.5084 3.81792 20.3276 4.02212C24.1468 4.22633 27.7556 5.83536 30.46 8.5398C33.1645 11.2442 34.7736 14.853 34.9778 18.6722C35.182 22.4914 33.9669 26.2515 31.5663 29.229C29.1656 32.2064 25.7489 34.1911 21.9733 34.8014C18.1976 35.4117 14.3297 34.6041 11.1132 32.5347L4.72027 34.9208C4.63099 34.9334 4.54006 34.9284 4.45285 34.9055C4.36564 34.8826 4.28387 34.8425 4.21228 34.7877ZM29.7434 29.7453C31.5896 27.8985 32.9022 25.5869 33.5424 23.0551C34.1826 20.5233 34.1264 17.8656 33.3799 15.3632C32.6333 12.8607 31.2242 10.6065 29.3016 8.83927C27.379 7.07203 25.0144 5.85758 22.458 5.32409C19.9017 4.7906 17.2486 4.95779 14.7796 5.80854C12.3107 6.65929 10.1176 8.16158 8.43247 10.1566C6.74736 12.1516 5.6329 14.5652 5.20701 17.1417C4.78112 19.7182 5.05964 22.3618 6.01311 24.793C6.47282 25.8316 6.99186 26.843 7.56762 27.8221L5.47033 33.5297L11.1786 31.4322C11.7562 31.665 12.2506 32.0634 12.8019 32.3522C15.5404 33.7576 18.6528 34.2625 21.6951 33.7943C24.7374 33.3262 27.5541 31.9091 29.7434 29.7453Z" fill="#808285"/>
<path d="M19.5001 26.4517C19.7872 26.7388 21.9329 25.0286 22.243 24.7627C22.5123 24.5308 23.394 23.5914 23.5971 23.5031C24.0948 23.2865 24.3199 23.7386 24.2766 24.1829C24.0974 25.9846 22.3458 28.7918 20.6919 29.5894C20.0969 29.8471 19.4461 29.9495 18.8007 29.8864C18.1553 29.8233 17.5365 29.5967 17.0027 29.2286C16.4688 28.8604 16.0374 28.3626 15.749 27.7818C15.4606 27.201 15.3246 26.5565 15.354 25.9087C15.4052 25.4796 15.4927 25.0555 15.6156 24.6412C16.0726 22.7053 16.742 20.8137 17.1446 18.8651C16.6656 18.888 15.3208 19.3033 14.9717 19.0289C14.9149 18.9778 14.8682 18.9165 14.8341 18.8481C14.7535 18.0801 14.7367 17.3065 14.784 16.5358C14.7853 16.4289 14.8223 16.3255 14.8891 16.2421C14.9559 16.1587 15.0487 16.1 15.1527 16.0754L20.1092 15.0977C20.3612 15.1011 20.6096 15.1578 20.8383 15.2637C21.067 15.3695 21.2708 15.5224 21.4363 15.7124C21.6019 15.9024 21.7255 16.1251 21.799 16.3661C21.8726 16.6071 21.8945 16.861 21.8633 17.111C21.2398 19.9601 20.2494 22.7396 19.6233 25.5844C19.5393 25.8657 19.4978 26.1581 19.5001 26.4517ZM15.8017 16.9505V18.0343C16.3963 18.1065 18.3152 17.2468 18.3814 18.216L16.3835 25.8536C16.3458 26.392 16.4609 26.9301 16.7155 27.4061C16.97 27.882 17.3537 28.2763 17.8225 28.5438C20.0642 29.7942 21.8353 27.6366 22.689 25.7831L20.7539 27.0995C19.0686 27.949 18.2158 27.3807 18.587 25.5068C19.1383 22.724 20.2273 19.8852 20.8227 17.0974C20.8599 16.9753 20.8656 16.8459 20.8392 16.7212C20.8128 16.5964 20.7552 16.4805 20.6718 16.3839C20.5884 16.2874 20.4819 16.2134 20.3623 16.1691C20.2427 16.1248 20.1139 16.1119 19.9877 16.1309L15.8017 16.9505Z" fill="#808285"/>
<path d="M23.1423 11.7959C23.1423 12.3369 22.9819 12.8654 22.6814 13.3152C22.3808 13.765 21.9536 14.1157 21.4538 14.3227C20.954 14.5297 20.4041 14.5838 19.8735 14.4782C19.3429 14.3727 18.8555 14.1125 18.473 13.73C18.0905 13.3475 17.83 12.8599 17.7244 12.3293C17.6189 11.7987 17.6731 11.2488 17.8801 10.749C18.0871 10.2492 18.4377 9.82191 18.8875 9.52136C19.3373 9.22081 19.8661 9.06055 20.4071 9.06055C21.1325 9.06078 21.828 9.34898 22.3409 9.86189C22.8538 10.3747 23.1421 11.0706 23.1423 11.7959ZM22.123 11.7959C22.123 11.4565 22.0224 11.1245 21.8338 10.8424C21.6453 10.5602 21.3773 10.3401 21.0637 10.2102C20.7502 10.0804 20.4052 10.0466 20.0723 10.1128C19.7395 10.179 19.4338 10.3423 19.1938 10.5823C18.9538 10.8223 18.7904 11.1279 18.7242 11.4608C18.658 11.7936 18.6919 12.139 18.8218 12.4525C18.9517 12.766 19.1716 13.0338 19.4538 13.2223C19.736 13.4109 20.0677 13.5118 20.4071 13.5118C20.6326 13.5123 20.856 13.468 21.0645 13.382C21.2729 13.296 21.4624 13.1697 21.622 13.0104C21.7816 12.8511 21.9082 12.662 21.9946 12.4537C22.0811 12.2454 22.1256 12.0223 22.1256 11.7967L22.123 11.7959Z" fill="#808285"/>
</g>
</svg>
