<svg width="40" height="40" viewBox="0 0 40 40" fill="none" xmlns="http://www.w3.org/2000/svg">
<mask id="mask0_2928_184" style="mask-type:alpha" maskUnits="userSpaceOnUse" x="0" y="0" width="40" height="40">
<path d="M39.96 0H0V39.96H39.96V0Z" fill="#808285"/>
</mask>
<g mask="url(#mask0_2928_184)">
<path d="M36.4934 17.8403C36.5255 18.4065 36.5255 18.9743 36.4934 19.5405C35.8934 28.9235 25.9934 34.3155 17.3294 33.2495C16.0245 33.0606 14.7379 32.7615 13.4834 32.3555C11.8859 33.8267 9.90268 34.8126 7.76544 35.1982C7.05313 35.36 6.31568 35.3779 5.59644 35.2505C5.40922 35.1712 5.25196 35.0346 5.14722 34.8603C5.04247 34.6861 4.99562 34.4828 5.01343 34.2803C5.04543 33.8043 5.85542 33.0801 6.14642 32.5991C6.90002 31.3664 7.18403 29.9037 6.94641 28.4785C6.79741 27.7525 6.31841 27.4785 5.89441 26.9165C-1.45659 17.0895 6.23243 5.4943 17.3284 4.1333C25.9924 3.0683 35.8874 8.45333 36.4934 17.8403ZM8.1394 33.1284C9.44255 32.7799 10.6556 32.1555 11.6964 31.2974C12.1284 30.9324 12.5895 30.2103 13.2075 30.1973C13.8623 30.3535 14.5044 30.559 15.1284 30.8115C22.6894 32.9445 32.5284 29.2932 34.2874 21.0342C36.2524 11.8232 27.0534 5.48552 18.6874 5.95752C8.43844 6.53552 0.587433 16.9415 7.68243 26.0415C8.13543 26.6225 8.5404 26.7831 8.7594 27.5771C9.08396 28.893 9.06611 30.2701 8.70746 31.5771C8.57046 32.1121 8.3084 32.5964 8.1394 33.1284Z" fill="#808285"/>
<path d="M14.7975 18.69C14.7975 19.2695 14.6257 19.836 14.3037 20.3179C13.9818 20.7997 13.5242 21.1752 12.9888 21.397C12.4534 21.6187 11.8643 21.6765 11.2959 21.5635C10.7276 21.4504 10.2054 21.1715 9.79568 20.7617C9.38591 20.352 9.10685 19.8296 8.9938 19.2612C8.88074 18.6929 8.93878 18.1038 9.16054 17.5684C9.38231 17.033 9.75787 16.5754 10.2397 16.2534C10.7215 15.9315 11.288 15.7598 11.8675 15.7598C12.6446 15.7598 13.3899 16.0687 13.9394 16.6182C14.4888 17.1677 14.7975 17.9129 14.7975 18.69ZM12.8435 18.69C12.8435 18.4969 12.7863 18.308 12.679 18.1475C12.5718 17.987 12.4193 17.862 12.241 17.7881C12.0626 17.7142 11.8664 17.6948 11.6771 17.7324C11.4878 17.7701 11.3139 17.863 11.1774 17.9995C11.0409 18.136 10.9479 18.3102 10.9102 18.4995C10.8726 18.6888 10.8919 18.8851 10.9658 19.0635C11.0397 19.2418 11.1648 19.3942 11.3253 19.5015C11.4858 19.6087 11.6745 19.666 11.8675 19.666C12.1257 19.665 12.3729 19.5614 12.5551 19.3784C12.7372 19.1955 12.8395 18.9481 12.8395 18.69H12.8435Z" fill="#808285"/>
<path d="M22.6393 18.69C22.6393 19.2695 22.4674 19.836 22.1455 20.3179C21.8235 20.7997 21.3659 21.1752 20.8305 21.397C20.2952 21.6187 19.706 21.6765 19.1377 21.5635C18.5693 21.4504 18.0473 21.1715 17.6375 20.7617C17.2277 20.352 16.9487 19.8296 16.8356 19.2612C16.7226 18.6929 16.7805 18.1038 17.0023 17.5684C17.2241 17.033 17.5996 16.5754 18.0815 16.2534C18.5633 15.9315 19.1298 15.7598 19.7093 15.7598C20.4864 15.7598 21.2316 16.0687 21.7811 16.6182C22.3306 17.1677 22.6393 17.9129 22.6393 18.69ZM20.6853 18.69C20.6853 18.4969 20.628 18.308 20.5208 18.1475C20.4135 17.987 20.2611 17.862 20.0828 17.7881C19.9045 17.7142 19.7082 17.6948 19.5189 17.7324C19.3296 17.7701 19.1556 17.863 19.0191 17.9995C18.8826 18.136 18.7897 18.3102 18.7521 18.4995C18.7144 18.6888 18.7337 18.8851 18.8076 19.0635C18.8815 19.2418 19.0065 19.3942 19.167 19.5015C19.3275 19.6087 19.5162 19.666 19.7093 19.666C19.9674 19.665 20.2147 19.5614 20.3968 19.3784C20.579 19.1955 20.6813 18.9481 20.6813 18.69H20.6853Z" fill="#808285"/>
<path d="M30.6041 18.69C30.6041 19.2695 30.4323 19.836 30.1104 20.3179C29.7884 20.7997 29.3308 21.1752 28.7954 21.397C28.26 21.6187 27.6709 21.6765 27.1026 21.5635C26.5342 21.4504 26.0121 21.1715 25.6023 20.7617C25.1925 20.352 24.9135 19.8296 24.8004 19.2612C24.6874 18.6929 24.7454 18.1038 24.9672 17.5684C25.189 17.033 25.5645 16.5754 26.0463 16.2534C26.5282 15.9315 27.0947 15.7598 27.6742 15.7598C28.4512 15.7598 29.1965 16.0687 29.746 16.6182C30.2955 17.1677 30.6041 17.9129 30.6041 18.69ZM28.6511 18.69C28.6513 18.4967 28.5942 18.3078 28.487 18.147C28.3797 17.9862 28.2272 17.8607 28.0487 17.7866C27.8702 17.7125 27.6737 17.6929 27.4842 17.7305C27.2946 17.7681 27.1204 17.861 26.9837 17.9976C26.8469 18.1342 26.7537 18.3085 26.716 18.4981C26.6782 18.6876 26.6975 18.8839 26.7714 19.0625C26.8454 19.2411 26.9706 19.3936 27.1312 19.501C27.2919 19.6084 27.4809 19.666 27.6742 19.666C27.9331 19.666 28.1815 19.5629 28.3646 19.3799C28.5478 19.1969 28.6509 18.9489 28.6511 18.69Z" fill="#808285"/>
</g>
</svg>
