<svg width="33" height="33" viewBox="0 0 33 33" fill="none" xmlns="http://www.w3.org/2000/svg">
<rect x="17.9873" y="9" width="5.47799" height="10.643" fill="white"/>
<path fill-rule="evenodd" clip-rule="evenodd" d="M19.255 19.643V9H19.568V19.643H19.255Z" fill="#D9D9D9"/>
<path fill-rule="evenodd" clip-rule="evenodd" d="M22.2177 18.117H20.4264V17.7961H22.2177V18.117Z" fill="#D9D9D9"/>
<rect width="5.47799" height="10.643" transform="matrix(-1 0 0 1 14.5559 9)" fill="white"/>
<path fill-rule="evenodd" clip-rule="evenodd" d="M13.2882 19.643V9H12.9752V19.643H13.2882Z" fill="#D9D9D9"/>
<path fill-rule="evenodd" clip-rule="evenodd" d="M10.3256 18.117H12.1169V17.7961H10.3256V18.117Z" fill="#D9D9D9"/>
<path fill-rule="evenodd" clip-rule="evenodd" d="M0 21.1624C0 21.0147 0.119701 20.895 0.267359 20.895H32.4039C32.5515 20.895 32.6712 21.0147 32.6712 21.1624V23.5686C32.6712 23.7163 32.5515 23.836 32.4039 23.836H0.267359C0.119701 23.836 0 23.7163 0 23.5686V21.1624Z" fill="white"/>
<path fill-rule="evenodd" clip-rule="evenodd" d="M9.22388 23.8359V20.895H9.49124V23.8359H9.22388Z" fill="#D9D9D9"/>
<path fill-rule="evenodd" clip-rule="evenodd" d="M23.157 23.8359V20.895H23.47V23.8359H23.157Z" fill="#D9D9D9"/>
<path fill-rule="evenodd" clip-rule="evenodd" d="M17.1645 23.1701H15.4534V22.9028H17.1645V23.1701Z" fill="#D9D9D9"/>
<path fill-rule="evenodd" clip-rule="evenodd" d="M16.7367 22.2609C16.7367 22.4972 16.5451 22.6887 16.3089 22.6887C16.0726 22.6887 15.8811 22.4972 15.8811 22.2609C15.8811 22.0247 16.0726 21.8331 16.3089 21.8331C16.5451 21.8331 16.7367 22.0247 16.7367 22.2609ZM16.3089 22.4213C16.3975 22.4213 16.4693 22.3495 16.4693 22.2609C16.4693 22.1723 16.3975 22.1005 16.3089 22.1005C16.2203 22.1005 16.1485 22.1723 16.1485 22.2609C16.1485 22.3495 16.2203 22.4213 16.3089 22.4213Z" fill="#D9D9D9"/>
<path fill-rule="evenodd" clip-rule="evenodd" d="M5.72132 22.3144C5.72132 22.6983 5.4101 23.0095 5.02619 23.0095C4.64228 23.0095 4.33105 22.6983 4.33105 22.3144C4.33105 21.9305 4.64228 21.6193 5.02619 21.6193C5.4101 21.6193 5.72132 21.9305 5.72132 22.3144ZM5.02619 22.7422C5.26244 22.7422 5.45396 22.5506 5.45396 22.3144C5.45396 22.0781 5.26244 21.8866 5.02619 21.8866C4.78993 21.8866 4.59841 22.0781 4.59841 22.3144C4.59841 22.5506 4.78993 22.7422 5.02619 22.7422Z" fill="#D9D9D9"/>
<path fill-rule="evenodd" clip-rule="evenodd" d="M28.3397 22.3144C28.3397 22.6983 28.0285 23.0095 27.6446 23.0095C27.2607 23.0095 26.9495 22.6983 26.9495 22.3144C26.9495 21.9305 27.2607 21.6193 27.6446 21.6193C28.0285 21.6193 28.3397 21.9305 28.3397 22.3144ZM27.6446 22.7422C27.8808 22.7422 28.0724 22.5506 28.0724 22.3144C28.0724 22.0781 27.8808 21.8866 27.6446 21.8866C27.4083 21.8866 27.2168 22.0781 27.2168 22.3144C27.2168 22.5506 27.4083 22.7422 27.6446 22.7422Z" fill="#D9D9D9"/>
<path fill-rule="evenodd" clip-rule="evenodd" d="M7.75325 22.3146C7.75325 22.5508 7.56173 22.7423 7.32548 22.7423C7.08923 22.7423 6.89771 22.5508 6.89771 22.3146C6.89771 22.0783 7.08923 21.8868 7.32548 21.8868C7.56173 21.8868 7.75325 22.0783 7.75325 22.3146ZM7.32548 22.475C7.41407 22.475 7.48589 22.4031 7.48589 22.3146C7.48589 22.226 7.41407 22.1541 7.32548 22.1541C7.23688 22.1541 7.16506 22.226 7.16506 22.3146C7.16506 22.4031 7.23688 22.475 7.32548 22.475Z" fill="#D9D9D9"/>
<path fill-rule="evenodd" clip-rule="evenodd" d="M3.10115 22.3146C3.10115 22.5508 2.90963 22.7423 2.67338 22.7423C2.43713 22.7423 2.24561 22.5508 2.24561 22.3146C2.24561 22.0783 2.43713 21.8868 2.67338 21.8868C2.90963 21.8868 3.10115 22.0783 3.10115 22.3146ZM2.67338 22.475C2.76197 22.475 2.83379 22.4031 2.83379 22.3146C2.83379 22.226 2.76197 22.1541 2.67338 22.1541C2.58478 22.1541 2.51296 22.226 2.51296 22.3146C2.51296 22.4031 2.58478 22.475 2.67338 22.475Z" fill="#D9D9D9"/>
<path fill-rule="evenodd" clip-rule="evenodd" d="M25.72 22.3146C25.72 22.5508 25.5285 22.7423 25.2923 22.7423C25.056 22.7423 24.8645 22.5508 24.8645 22.3146C24.8645 22.0783 25.056 21.8868 25.2923 21.8868C25.5285 21.8868 25.72 22.0783 25.72 22.3146ZM25.2923 22.475C25.3809 22.475 25.4527 22.4031 25.4527 22.3146C25.4527 22.226 25.3809 22.1541 25.2923 22.1541C25.2037 22.1541 25.1319 22.226 25.1319 22.3146C25.1319 22.4031 25.2037 22.475 25.2923 22.475Z" fill="#D9D9D9"/>
<path fill-rule="evenodd" clip-rule="evenodd" d="M30.3182 22.3146C30.3182 22.5508 30.1267 22.7423 29.8904 22.7423C29.6542 22.7423 29.4626 22.5508 29.4626 22.3146C29.4626 22.0783 29.6542 21.8868 29.8904 21.8868C30.1267 21.8868 30.3182 22.0783 30.3182 22.3146ZM29.8904 22.475C29.979 22.475 30.0508 22.4031 30.0508 22.3146C30.0508 22.226 29.979 22.1541 29.8904 22.1541C29.8018 22.1541 29.73 22.226 29.73 22.3146C29.73 22.4031 29.8018 22.475 29.8904 22.475Z" fill="#D9D9D9"/>
<path fill-rule="evenodd" clip-rule="evenodd" d="M8.39522 22.3144C8.39522 22.905 7.91641 23.3838 7.32578 23.3838C6.73515 23.3838 6.25635 22.905 6.25635 22.3144C6.25635 21.7237 6.73515 21.2449 7.32578 21.2449C7.91641 21.2449 8.39522 21.7237 8.39522 22.3144ZM7.32578 23.1164C7.76876 23.1164 8.12786 22.7573 8.12786 22.3144C8.12786 21.8714 7.76876 21.5123 7.32578 21.5123C6.88281 21.5123 6.52371 21.8714 6.52371 22.3144C6.52371 22.7573 6.88281 23.1164 7.32578 23.1164Z" fill="#D9D9D9"/>
<path fill-rule="evenodd" clip-rule="evenodd" d="M3.74263 22.3144C3.74263 22.905 3.26383 23.3838 2.67319 23.3838C2.08256 23.3838 1.60376 22.905 1.60376 22.3144C1.60376 21.7237 2.08256 21.2449 2.67319 21.2449C3.26383 21.2449 3.74263 21.7237 3.74263 22.3144ZM2.67319 23.1164C3.11617 23.1164 3.47527 22.7573 3.47527 22.3144C3.47527 21.8714 3.11617 21.5123 2.67319 21.5123C2.23022 21.5123 1.87112 21.8714 1.87112 22.3144C1.87112 22.7573 2.23022 23.1164 2.67319 23.1164Z" fill="#D9D9D9"/>
<path fill-rule="evenodd" clip-rule="evenodd" d="M26.3615 22.3144C26.3615 22.905 25.8827 23.3838 25.2921 23.3838C24.7015 23.3838 24.2227 22.905 24.2227 22.3144C24.2227 21.7237 24.7015 21.2449 25.2921 21.2449C25.8827 21.2449 26.3615 21.7237 26.3615 22.3144ZM25.2921 23.1164C25.7351 23.1164 26.0942 22.7573 26.0942 22.3144C26.0942 21.8714 25.7351 21.5123 25.2921 21.5123C24.8491 21.5123 24.49 21.8714 24.49 22.3144C24.49 22.7573 24.8491 23.1164 25.2921 23.1164Z" fill="#D9D9D9"/>
<path fill-rule="evenodd" clip-rule="evenodd" d="M30.9599 22.3144C30.9599 22.905 30.4811 23.3838 29.8905 23.3838C29.2998 23.3838 28.821 22.905 28.821 22.3144C28.821 21.7237 29.2998 21.2449 29.8905 21.2449C30.4811 21.2449 30.9599 21.7237 30.9599 22.3144ZM29.8905 23.1164C30.3335 23.1164 30.6926 22.7573 30.6926 22.3144C30.6926 21.8714 30.3335 21.5123 29.8905 21.5123C29.4475 21.5123 29.0884 21.8714 29.0884 22.3144C29.0884 22.7573 29.4475 23.1164 29.8905 23.1164Z" fill="#D9D9D9"/>
</svg>
