<svg xmlns="http://www.w3.org/2000/svg" width="27.551" height="25.335" viewBox="0 0 27.551 25.335">
  <g id="Group_177" data-name="Group 177" transform="translate(-851.666 -6922.78)">
    <path id="Path_164" data-name="Path 164" d="M863.453,6922.8c2.067-.137,5.689.456,7.352,1.772a1.416,1.416,0,0,1-.026,2.258c-.977.7-2.17-.329-3.143-.671a9.852,9.852,0,1,0,.753,18.254c.3-.133.623-.369.9-.485a1.413,1.413,0,0,1,1.357,2.478c-4.822,3.169-11.963,1.7-15.716-2.465A12.7,12.7,0,0,1,863.453,6922.8Z" fill="#bcbec0"/>
    <path id="Path_165" data-name="Path 165" d="M874.936,6936.82H863.961a2.621,2.621,0,0,1-.358-.169,1.426,1.426,0,0,1,0-2.431,2.63,2.63,0,0,1,.358-.169h10.975c.029-.115-.047-.131-.1-.2-.521-.679-2-1.633-2.077-2.471a1.424,1.424,0,0,1,2.308-1.254,33.249,33.249,0,0,1,3.359,3.365,2.785,2.785,0,0,1,0,3.885,32.83,32.83,0,0,1-3.293,3.3,1.417,1.417,0,0,1-2.374-1.188c.08-.838,1.556-1.791,2.077-2.471C874.889,6936.952,874.965,6936.935,874.936,6936.82Z" fill="#bcbec0"/>
  </g>
</svg>
