<svg width="40" height="40" viewBox="0 0 40 40" fill="none" xmlns="http://www.w3.org/2000/svg">
<rect x="8.32812" y="9.90137" width="9.83558" height="2.75392" rx="1.37696" fill="url(#paint0_linear_13_809)"/>
<rect x="8.32812" y="15.8027" width="9.83558" height="2.75392" rx="1.37696" fill="url(#paint1_linear_13_809)"/>
<path d="M25.9538 18.6593C26.4357 18.2047 27.1954 18.2263 27.6501 18.7081C28.1047 19.19 28.0822 19.9498 27.6003 20.4044L24.0729 23.7326C23.7967 23.993 23.4295 24.0956 23.0807 24.046C22.8075 24.0409 22.5347 23.9434 22.3132 23.7492L20.2458 21.9376C19.7476 21.5009 19.6977 20.7425 20.1345 20.2443C20.5711 19.7464 21.3287 19.6966 21.8268 20.133L23.1559 21.298L25.9538 18.6593Z" fill="url(#paint2_linear_13_809)"/>
<path d="M24.0646 4C26.672 4 28.7857 6.11367 28.7857 8.72101V13.1961C28.06 12.7515 27.2669 12.4064 26.4251 12.1796V8.72101C26.4251 7.41734 25.3683 6.36051 24.0646 6.36051H8.72108C7.41739 6.36051 6.36054 7.41734 6.36054 8.72101V30.359C6.36054 31.6219 7.3524 32.6532 8.59967 32.7164L8.72108 32.7195H24.0646L24.186 32.7164C25.4333 32.6532 26.4251 31.6219 26.4251 30.359V29.654C27.2669 29.4271 28.06 29.0821 28.7857 28.6374V30.359C28.7857 32.9663 26.672 35.08 24.0646 35.08H8.72108C6.1137 35.08 4 32.9663 4 30.359V8.72101C4 6.11367 6.1137 4 8.72108 4H24.0646Z" fill="url(#paint3_linear_13_809)"/>
<path d="M15.0255 21.3105C15.0668 22.2754 15.2588 23.201 15.5792 24.0645H9.70511C8.94462 24.0645 8.32812 23.448 8.32812 22.6875C8.32812 21.927 8.94462 21.3105 9.70511 21.3105H15.0255Z" fill="url(#paint4_linear_13_809)"/>
<path d="M24.0644 11.8682C29.0618 11.8682 33.1131 15.9194 33.1131 20.9168C33.1131 22.5105 32.7004 24.0076 31.977 25.3081L34.6222 27.9533C35.16 28.4911 35.16 29.3631 34.6222 29.9008C34.0845 30.4384 33.2128 30.4384 32.6751 29.9008L30.2727 27.4985C28.6523 29.0274 26.4681 29.9654 24.0644 29.9654C19.0669 29.9654 15.0156 25.9142 15.0156 20.9168C15.0156 15.9194 19.0669 11.8682 24.0644 11.8682ZM24.0644 14.2287C20.3706 14.2287 17.3762 17.223 17.3762 20.9168C17.3762 24.6105 20.3706 27.6049 24.0644 27.6049C27.7582 27.6049 30.7526 24.6105 30.7526 20.9168C30.7526 17.223 27.7582 14.2287 24.0644 14.2287Z" fill="url(#paint5_linear_13_809)"/>
<defs>
<linearGradient id="paint0_linear_13_809" x1="8.83686" y1="9.90137" x2="10.7652" y2="15.2986" gradientUnits="userSpaceOnUse">
<stop stop-color="#FBBF14"/>
<stop offset="0.5" stop-color="#E77023"/>
<stop offset="0.663462" stop-color="#E66B24"/>
<stop offset="1" stop-color="#F48120"/>
</linearGradient>
<linearGradient id="paint1_linear_13_809" x1="8.83686" y1="15.8027" x2="10.7652" y2="21.2" gradientUnits="userSpaceOnUse">
<stop stop-color="#FBBF14"/>
<stop offset="0.5" stop-color="#E77023"/>
<stop offset="0.663462" stop-color="#E66B24"/>
<stop offset="1" stop-color="#F48120"/>
</linearGradient>
<linearGradient id="paint2_linear_13_809" x1="20.2579" y1="18.332" x2="26.5485" y2="25.3402" gradientUnits="userSpaceOnUse">
<stop stop-color="#FBBF14"/>
<stop offset="0.5" stop-color="#E77023"/>
<stop offset="0.663462" stop-color="#E66B24"/>
<stop offset="1" stop-color="#F48120"/>
</linearGradient>
<linearGradient id="paint3_linear_13_809" x1="5.28201" y1="4" x2="36.1521" y2="23.2934" gradientUnits="userSpaceOnUse">
<stop stop-color="#FBBF14"/>
<stop offset="0.5" stop-color="#E77023"/>
<stop offset="0.663462" stop-color="#E66B24"/>
<stop offset="1" stop-color="#F48120"/>
</linearGradient>
<linearGradient id="paint4_linear_13_809" x1="8.70318" y1="21.3105" x2="11.0917" y2="26.2392" gradientUnits="userSpaceOnUse">
<stop stop-color="#FBBF14"/>
<stop offset="0.5" stop-color="#E77023"/>
<stop offset="0.663462" stop-color="#E66B24"/>
<stop offset="1" stop-color="#F48120"/>
</linearGradient>
<linearGradient id="paint5_linear_13_809" x1="16.0506" y1="11.8682" x2="36.1584" y2="28.9721" gradientUnits="userSpaceOnUse">
<stop stop-color="#FBBF14"/>
<stop offset="0.5" stop-color="#E77023"/>
<stop offset="0.663462" stop-color="#E66B24"/>
<stop offset="1" stop-color="#F48120"/>
</linearGradient>
</defs>
</svg>
