<svg width="41" height="40" viewBox="0 0 41 40" fill="none" xmlns="http://www.w3.org/2000/svg">
<path d="M8.97522 12.9266H2.95048C2.69839 12.9261 2.45676 12.8257 2.27859 12.6473C2.10042 12.469 2.00024 12.2272 2 11.9751V5.95059C2.00024 5.69858 2.10045 5.45701 2.27865 5.27881C2.45684 5.10061 2.69847 5.00024 2.95048 5H8.97522C9.22731 5.00024 9.46905 5.10064 9.64739 5.27881C9.82573 5.45698 9.92616 5.6985 9.92664 5.95059V11.9751C9.9264 12.2274 9.82608 12.4694 9.64771 12.6478C9.46935 12.8261 9.22747 12.9263 8.97522 12.9266ZM3.51156 11.4162H8.41595V6.51173H3.51156V11.4162Z" fill="url(#paint0_linear_2925_132)"/>
<path d="M37.2069 6.02832H13.0799C12.9721 6.02832 12.8848 6.11568 12.8848 6.22345V7.81957C12.8848 7.92734 12.9721 8.0147 13.0799 8.0147H37.2069C37.3147 8.0147 37.402 7.92734 37.402 7.81957V6.22345C37.402 6.11568 37.3147 6.02832 37.2069 6.02832Z" fill="url(#paint1_linear_2925_132)"/>
<path d="M37.2069 9.91797H13.0799C12.9721 9.91797 12.8848 10.0053 12.8848 10.1131V11.7092C12.8848 11.817 12.9721 11.9043 13.0799 11.9043H37.2069C37.3147 11.9043 37.402 11.817 37.402 11.7092V10.1131C37.402 10.0053 37.3147 9.91797 37.2069 9.91797Z" fill="url(#paint2_linear_2925_132)"/>
<path d="M8.97522 24.5956H2.95048C2.69847 24.5954 2.45684 24.495 2.27865 24.3168C2.10045 24.1386 2.00024 23.897 2 23.645V17.6205C2.00024 17.3685 2.10045 17.1269 2.27865 16.9487C2.45684 16.7705 2.69847 16.6702 2.95048 16.6699H8.97522C9.22731 16.6702 9.46905 16.7706 9.64739 16.9487C9.82573 17.1269 9.92616 17.3684 9.92664 17.6205V23.645C9.92616 23.8971 9.82573 24.1391 9.64739 24.3173C9.46905 24.4954 9.22731 24.5954 8.97522 24.5956ZM3.51156 23.0848H8.41595V18.1816H3.51156V23.0848Z" fill="url(#paint3_linear_2925_132)"/>
<path d="M37.2069 17.6963H13.0799C12.9721 17.6963 12.8848 17.7837 12.8848 17.8914V19.4875C12.8848 19.5953 12.9721 19.6827 13.0799 19.6827H37.2069C37.3147 19.6827 37.402 19.5953 37.402 19.4875V17.8914C37.402 17.7837 37.3147 17.6963 37.2069 17.6963Z" fill="url(#paint4_linear_2925_132)"/>
<path d="M37.2069 21.585H13.0799C12.9721 21.585 12.8848 21.6723 12.8848 21.7801V23.3762C12.8848 23.484 12.9721 23.5713 13.0799 23.5713H37.2069C37.3147 23.5713 37.402 23.484 37.402 23.3762V21.7801C37.402 21.6723 37.3147 21.585 37.2069 21.585Z" fill="url(#paint5_linear_2925_132)"/>
<path d="M8.97522 36.2626H2.95048C2.69847 36.2624 2.45684 36.162 2.27865 35.9838C2.10045 35.8056 2.00024 35.564 2 35.312V29.2875C2.00024 29.0355 2.10045 28.7935 2.27865 28.6153C2.45684 28.4371 2.69847 28.3372 2.95048 28.3369H8.97522C9.22731 28.3372 9.46905 28.4371 9.64739 28.6153C9.82573 28.7935 9.92616 29.0354 9.92664 29.2875V35.312C9.92616 35.5641 9.82573 35.8056 9.64739 35.9838C9.46905 36.162 9.22731 36.2624 8.97522 36.2626ZM3.51156 34.7518H8.41595V29.8482H3.51156V34.7518Z" fill="url(#paint6_linear_2925_132)"/>
<path d="M37.2069 29.3633H13.0799C12.9721 29.3633 12.8848 29.4506 12.8848 29.5584V31.1545C12.8848 31.2623 12.9721 31.3497 13.0799 31.3497H37.2069C37.3147 31.3497 37.402 31.2623 37.402 31.1545V29.5584C37.402 29.4506 37.3147 29.3633 37.2069 29.3633Z" fill="url(#paint7_linear_2925_132)"/>
<path d="M37.2069 33.251H13.0799C12.9721 33.251 12.8848 33.3383 12.8848 33.4461V35.0422C12.8848 35.15 12.9721 35.2374 13.0799 35.2374H37.2069C37.3147 35.2374 37.402 35.15 37.402 35.0422V33.4461C37.402 33.3383 37.3147 33.251 37.2069 33.251Z" fill="url(#paint8_linear_2925_132)"/>
<defs>
<linearGradient id="paint0_linear_2925_132" x1="-5.85529" y1="-11.8361" x2="45.5801" y2="78.6937" gradientUnits="userSpaceOnUse">
<stop stop-color="#FBBF14"/>
<stop offset="0.481" stop-color="#E77023"/>
<stop offset="0.597" stop-color="#E66B24"/>
<stop offset="1" stop-color="#F48120"/>
</linearGradient>
<linearGradient id="paint1_linear_2925_132" x1="9.47685" y1="-20.5375" x2="9.81521" y2="70.1546" gradientUnits="userSpaceOnUse">
<stop stop-color="#FBBF14"/>
<stop offset="0.481" stop-color="#E77023"/>
<stop offset="0.597" stop-color="#E66B24"/>
<stop offset="1" stop-color="#F48120"/>
</linearGradient>
<linearGradient id="paint2_linear_2925_132" x1="7.8097" y1="-19.5857" x2="8.14805" y2="71.1063" gradientUnits="userSpaceOnUse">
<stop stop-color="#FBBF14"/>
<stop offset="0.481" stop-color="#E77023"/>
<stop offset="0.597" stop-color="#E66B24"/>
<stop offset="1" stop-color="#F48120"/>
</linearGradient>
<linearGradient id="paint3_linear_2925_132" x1="-10.8649" y1="-8.98558" x2="40.5619" y2="81.547" gradientUnits="userSpaceOnUse">
<stop stop-color="#FBBF14"/>
<stop offset="0.481" stop-color="#E77023"/>
<stop offset="0.597" stop-color="#E66B24"/>
<stop offset="1" stop-color="#F48120"/>
</linearGradient>
<linearGradient id="paint4_linear_2925_132" x1="4.47534" y1="-17.6871" x2="4.8137" y2="73.005" gradientUnits="userSpaceOnUse">
<stop stop-color="#FBBF14"/>
<stop offset="0.481" stop-color="#E77023"/>
<stop offset="0.597" stop-color="#E66B24"/>
<stop offset="1" stop-color="#F48120"/>
</linearGradient>
<linearGradient id="paint5_linear_2925_132" x1="2.80814" y1="-16.7363" x2="3.14633" y2="73.9556" gradientUnits="userSpaceOnUse">
<stop stop-color="#FBBF14"/>
<stop offset="0.481" stop-color="#E77023"/>
<stop offset="0.597" stop-color="#E66B24"/>
<stop offset="1" stop-color="#F48120"/>
</linearGradient>
<linearGradient id="paint6_linear_2925_132" x1="-15.8746" y1="-6.13989" x2="35.5522" y2="84.4006" gradientUnits="userSpaceOnUse">
<stop stop-color="#FBBF14"/>
<stop offset="0.481" stop-color="#E77023"/>
<stop offset="0.597" stop-color="#E66B24"/>
<stop offset="1" stop-color="#F48120"/>
</linearGradient>
<linearGradient id="paint7_linear_2925_132" x1="-0.550722" y1="-14.8376" x2="-0.212367" y2="75.8544" gradientUnits="userSpaceOnUse">
<stop stop-color="#FBBF14"/>
<stop offset="0.481" stop-color="#E77023"/>
<stop offset="0.597" stop-color="#E66B24"/>
<stop offset="1" stop-color="#F48120"/>
</linearGradient>
<linearGradient id="paint8_linear_2925_132" x1="-2.21787" y1="-13.8898" x2="-1.87951" y2="76.8023" gradientUnits="userSpaceOnUse">
<stop stop-color="#FBBF14"/>
<stop offset="0.481" stop-color="#E77023"/>
<stop offset="0.597" stop-color="#E66B24"/>
<stop offset="1" stop-color="#F48120"/>
</linearGradient>
</defs>
</svg>
