<svg width="40" height="40" viewBox="0 0 40 40" fill="none" xmlns="http://www.w3.org/2000/svg">
<mask id="mask0_23_141" style="mask-type:alpha" maskUnits="userSpaceOnUse" x="0" y="0" width="40" height="40">
<rect width="39.96" height="39.96" fill="#D9D9D9"/>
</mask>
<g mask="url(#mask0_23_141)">
<path d="M22.9517 32.2341C22.9048 32.3085 22.9517 32.9969 22.9331 33.189C22.8982 33.6031 22.7482 33.9993 22.5001 34.3326C22.252 34.666 21.9157 34.9234 21.529 35.0757C20.3195 35.2325 19.0972 35.2648 17.8811 35.1724C17.3976 35.0805 16.9589 34.8292 16.6351 34.4588C16.3112 34.0883 16.1208 33.62 16.0943 33.1287C16.1078 32.8309 16.1039 32.5328 16.0824 32.2355C15.8527 32.1013 15.6321 31.952 15.422 31.7888C14.4736 30.7711 15.0498 29.0342 14.8785 27.7686C14.8041 27.1931 14.6954 26.5515 14.5986 25.967C14.1936 23.5177 11.946 22.4781 10.6938 20.4725C4.66873 10.8247 15.9357 -0.60898 25.3795 5.92162C26.5531 6.73486 27.5526 7.77414 28.3196 8.97844C29.0866 10.1827 29.6056 11.528 29.8463 12.9353C30.0871 14.3427 30.0446 15.7839 29.7214 17.1747C29.3983 18.5654 28.8009 19.8778 27.9643 21.0348C26.6987 22.7941 24.8271 23.597 24.4347 25.9652C24.3379 26.5496 24.2322 27.1917 24.1555 27.7672C23.9858 29.0365 24.5606 30.7718 23.6121 31.7873C23.402 31.9506 23.1814 32.0998 22.9517 32.2341ZM18.9665 5.45559C12.1173 5.96929 8.25487 13.7321 11.8351 19.5964C13.3293 22.0443 15.4779 22.5571 16.0154 25.8224C16.1315 26.5274 15.8806 27.3725 16.7941 27.4604C18.5503 27.6294 20.5805 27.3306 22.3658 27.4527C23.1103 27.3388 22.9323 26.3583 23.0276 25.7642C23.5629 22.4423 26.3079 21.5953 27.6524 18.7745C30.5991 12.5983 25.8612 4.93818 18.9665 5.45559ZM22.7395 28.8664H16.2946V30.5121C16.2946 30.655 16.6616 31.0479 16.8618 31.0181C18.5317 30.8796 20.4696 31.1923 22.106 31.0181C22.3435 30.9928 22.7395 30.7567 22.7395 30.5103V28.8664ZM21.4642 32.4922H17.5698C17.546 33.1369 17.4768 33.6954 18.2712 33.7714C19.1789 33.833 20.0901 33.821 20.996 33.7361C21.5759 33.5842 21.4687 32.9627 21.4642 32.4922Z" fill="url(#paint0_linear_23_141)"/>
<path d="M19.7582 18.7522C19.6384 18.8617 19.4917 18.9375 19.333 18.9714C19.1744 19.0053 19.0096 18.9962 18.8556 18.9452C18.7015 18.8943 18.5639 18.8032 18.4568 18.6813C18.3497 18.5595 18.2769 18.4113 18.2461 18.252C18.2215 18.1031 18.2409 17.1211 18.1389 17.104H15.3561C15.1982 17.1405 15.2734 17.9157 15.2563 18.0877C15.2646 18.3246 15.1784 18.5552 15.0167 18.7286C14.855 18.902 14.6311 19.0038 14.3942 19.0121C14.1572 19.0204 13.9267 18.9342 13.7533 18.7726C13.5799 18.6109 13.4778 18.3872 13.4695 18.1502C13.3073 16.3047 14.3755 12.9544 15.4469 11.4364C16.7058 9.64968 17.7101 10.7662 18.4799 12.1882C19.2432 13.6411 19.7408 15.2188 19.9495 16.8467C20.0135 17.3872 20.1714 18.3442 19.7582 18.7522ZM17.8151 15.3217C17.8285 15.1132 16.8472 12.6415 16.6857 12.7636C16.2648 13.5809 15.9257 14.4378 15.6732 15.3217H17.8151Z" fill="url(#paint1_linear_23_141)"/>
<path d="M24.7776 16.155C24.7687 16.8995 25.001 18.026 23.9155 18.026C22.8882 18.026 22.9671 16.8913 22.9931 16.1543C22.2658 16.2116 20.9942 16.1931 21.1133 15.1426C21.2279 14.1323 22.2665 14.398 22.9931 14.3705C22.9872 13.5635 22.8383 12.4155 23.9766 12.4631C25.1 12.51 24.657 13.6274 24.8335 14.3436C25.6777 14.3912 26.8354 14.1545 26.6828 15.4127C26.6445 15.6163 26.5381 15.8009 26.3812 15.9361C26.2243 16.0714 26.0261 16.1493 25.8191 16.1572L24.7776 16.155Z" fill="url(#paint2_linear_23_141)"/>
</g>
<defs>
<linearGradient id="paint0_linear_23_141" x1="4.38" y1="-12.9545" x2="62.6203" y2="37.5485" gradientUnits="userSpaceOnUse">
<stop stop-color="#FBBF14"/>
<stop offset="0.481" stop-color="#E77023"/>
<stop offset="0.597" stop-color="#E66B24"/>
<stop offset="1" stop-color="#F48120"/>
</linearGradient>
<linearGradient id="paint1_linear_23_141" x1="1.91858" y1="-11.7188" x2="54.8586" y2="49.2026" gradientUnits="userSpaceOnUse">
<stop stop-color="#FBBF14"/>
<stop offset="0.481" stop-color="#E77023"/>
<stop offset="0.597" stop-color="#E66B24"/>
<stop offset="1" stop-color="#F48120"/>
</linearGradient>
<linearGradient id="paint2_linear_23_141" x1="8.17355" y1="-14.9316" x2="46.2066" y2="58.6718" gradientUnits="userSpaceOnUse">
<stop stop-color="#FBBF14"/>
<stop offset="0.481" stop-color="#E77023"/>
<stop offset="0.597" stop-color="#E66B24"/>
<stop offset="1" stop-color="#F48120"/>
</linearGradient>
</defs>
</svg>
