<svg width="40" height="40" viewBox="0 0 40 40" fill="none" xmlns="http://www.w3.org/2000/svg">
<mask id="mask0_23_197" style="mask-type:alpha" maskUnits="userSpaceOnUse" x="0" y="0" width="40" height="40">
<rect width="39.96" height="39.96" fill="#D9D9D9"/>
</mask>
<g mask="url(#mask0_23_197)">
<path d="M20.8862 11.0103C21.7094 11.0088 22.5287 11.1237 23.3197 11.3517C26.0704 12.0518 28.562 13.5273 30.4983 15.6026C32.4346 17.678 33.7341 20.2659 34.2421 23.0584C34.4244 23.9728 34.4879 24.907 34.4311 25.8377C34.3686 26.2298 33.9322 26.3674 33.5878 26.3997C31.2225 26.6028 28.5726 26.2416 26.177 26.3997C25.1321 26.3098 25.3709 25.7175 25.2669 24.9761C25.1409 24.0139 24.7695 23.1002 24.1884 22.3231C23.6073 21.5459 22.836 20.9315 21.9487 20.5385C21.4779 20.3361 20.5714 20.2446 20.414 19.7394C20.3247 17.0578 20.4006 14.3594 20.376 11.6715C20.3916 11.5248 20.4475 11.3854 20.5376 11.2686C20.6276 11.1519 20.7483 11.0625 20.8862 11.0103ZM32.973 24.9367C32.8294 21.9061 31.6415 19.0185 29.6111 16.7641C27.5806 14.5097 24.8326 13.0274 21.8335 12.5687V18.8966C22.2551 19.1011 22.702 19.253 23.118 19.4786C24.1137 20.0314 24.9617 20.8155 25.5909 21.7648C26.22 22.7141 26.6116 23.8009 26.7328 24.9332L32.973 24.9367Z" fill="url(#paint0_linear_23_197)"/>
<path d="M8.87453 16.0273C8.9984 16.0276 9.12072 16.0551 9.23292 16.1076C11.1949 17.9038 13.0163 19.8693 14.9249 21.7294C15.466 22.3569 14.816 22.9403 14.5736 23.5404C14.4462 23.8603 14.3477 24.1908 14.2791 24.5283C14.1175 25.3828 14.44 26.3006 13.2911 26.399C10.8955 26.2416 8.24631 26.6014 5.88025 26.399C5.49305 26.3659 5.08687 26.2211 5.03698 25.7855C4.82616 24.0287 5.55417 21.283 6.27094 19.6717C6.80351 18.4477 7.50793 17.3062 8.36293 16.2813C8.50176 16.1439 8.68117 16.0547 8.87453 16.0273ZM12.7395 24.9366C12.8306 24.2595 12.9972 23.595 13.2363 22.955C13.289 22.8145 13.5258 22.482 13.4717 22.3724L8.97429 17.8806C7.48216 19.9429 6.62114 22.3942 6.49582 24.9366H12.7395Z" fill="url(#paint1_linear_23_197)"/>
<path d="M17.9742 11.0151C18.5364 10.9708 18.9306 10.9849 19.0887 11.6152L19.0802 19.6447C18.9692 20.2561 18.1253 20.2769 17.6369 20.4757C17.0747 20.6999 16.4746 21.3317 15.885 20.8847L10.3152 15.3151C9.85427 14.6925 10.2393 14.3887 10.7017 14.0072C12.8119 12.3726 15.3247 11.3388 17.9742 11.0151ZM17.6362 12.5722C15.5882 12.8593 13.6439 13.6518 11.9786 14.878L16.4134 19.3692C16.4739 19.4141 16.5245 19.3874 16.5863 19.3692C16.8555 19.3031 17.3354 18.9901 17.6362 18.8974V12.5722Z" fill="url(#paint2_linear_23_197)"/>
<path d="M24.0026 25.6435C24.0026 26.4874 23.7523 27.3124 23.2834 28.0141C22.8146 28.7158 22.1482 29.2627 21.3685 29.5856C20.5889 29.9086 19.7309 29.9932 18.9032 29.8286C18.0755 29.6639 17.3152 29.2573 16.7185 28.6606C16.1217 28.0638 15.7154 27.3036 15.5507 26.4759C15.3861 25.6482 15.4706 24.7902 15.7935 24.0105C16.1165 23.2309 16.6634 22.5648 17.3651 22.0959C18.0668 21.627 18.8917 21.3767 19.7357 21.3767C20.8673 21.3769 21.9525 21.8266 22.7526 22.6267C23.5528 23.4269 24.0024 24.5119 24.0026 25.6435ZM22.5409 25.6435C22.5409 25.0887 22.3764 24.5463 22.0682 24.085C21.76 23.6237 21.3219 23.2642 20.8093 23.0518C20.2968 22.8395 19.7328 22.7841 19.1886 22.8923C18.6445 23.0005 18.1446 23.2676 17.7523 23.6599C17.3599 24.0521 17.0927 24.5517 16.9844 25.0958C16.8761 25.64 16.9315 26.2042 17.1437 26.7168C17.356 27.2294 17.7154 27.6674 18.1766 27.9757C18.6379 28.284 19.1801 28.4487 19.7349 28.4488C20.4786 28.4489 21.1919 28.1537 21.7181 27.6281C22.2442 27.1025 22.5402 26.3892 22.5409 25.6455V25.6435Z" fill="url(#paint3_linear_23_197)"/>
<path d="M20.7741 24.0739C20.9262 24.0421 21.0844 24.0593 21.2259 24.1233C21.3674 24.1873 21.485 24.2949 21.5615 24.4301C21.638 24.5653 21.6695 24.7212 21.6515 24.8755C21.6335 25.0297 21.5669 25.1743 21.4614 25.2882C20.8953 25.9268 20.2876 26.5271 19.642 27.0852C19.541 27.1564 19.4238 27.2011 19.301 27.2152C19.1782 27.2293 19.0538 27.2123 18.9393 27.1658C18.4922 26.842 18.0797 26.473 17.7081 26.0647C17.6531 25.9865 17.6146 25.8979 17.595 25.8043C17.5754 25.7106 17.5751 25.6139 17.5942 25.5202C17.6133 25.4264 17.6513 25.3376 17.706 25.2591C17.7606 25.1805 17.8307 25.114 17.912 25.0635C18.6147 24.6116 19.0363 25.4929 19.2359 25.4577C19.6266 25.1914 20.3455 24.1561 20.7741 24.0739Z" fill="url(#paint4_linear_23_197)"/>
</g>
<defs>
<linearGradient id="paint0_linear_23_197" x1="22.1153" y1="3.22181" x2="42.5256" y2="61.9324" gradientUnits="userSpaceOnUse">
<stop stop-color="#FBBF14"/>
<stop offset="0.481" stop-color="#E77023"/>
<stop offset="0.597" stop-color="#E66B24"/>
<stop offset="1" stop-color="#F48120"/>
</linearGradient>
<linearGradient id="paint1_linear_23_197" x1="5.46618" y1="7.98181" x2="23.7078" y2="67.5883" gradientUnits="userSpaceOnUse">
<stop stop-color="#FBBF14"/>
<stop offset="0.481" stop-color="#E77023"/>
<stop offset="0.597" stop-color="#E66B24"/>
<stop offset="1" stop-color="#F48120"/>
</linearGradient>
<linearGradient id="paint2_linear_23_197" x1="12.4964" y1="5.95946" x2="33.5974" y2="64.4653" gradientUnits="userSpaceOnUse">
<stop stop-color="#FBBF14"/>
<stop offset="0.481" stop-color="#E77023"/>
<stop offset="0.597" stop-color="#E66B24"/>
<stop offset="1" stop-color="#F48120"/>
</linearGradient>
<linearGradient id="paint3_linear_23_197" x1="13.9327" y1="5.54651" x2="31.2136" y2="65.4282" gradientUnits="userSpaceOnUse">
<stop stop-color="#FBBF14"/>
<stop offset="0.481" stop-color="#E77023"/>
<stop offset="0.597" stop-color="#E66B24"/>
<stop offset="1" stop-color="#F48120"/>
</linearGradient>
<linearGradient id="paint4_linear_23_197" x1="13.9236" y1="5.54665" x2="24.5591" y2="66.591" gradientUnits="userSpaceOnUse">
<stop stop-color="#FBBF14"/>
<stop offset="0.481" stop-color="#E77023"/>
<stop offset="0.597" stop-color="#E66B24"/>
<stop offset="1" stop-color="#F48120"/>
</linearGradient>
</defs>
</svg>
