<svg xmlns="http://www.w3.org/2000/svg" width="25.567" height="32.027" viewBox="0 0 25.567 32.027">
  <g id="Group_74" data-name="Group 74" transform="translate(-2876.303 -8169.887)">
    <path id="Path_67" data-name="Path 67" d="M2898.431,8193.471c-.578-1.268-2.642-2.284-4.1-2.346a48.191,48.191,0,0,1-5.071-.014,42.289,42.289,0,0,0-5.66.039c-1.458.148-3.363,1.146-3.875,2.4a1.807,1.807,0,0,0,.4,1.924c1.643,1.986,5.173,3.186,9.185,3.16,3.875-.036,7.239-1.261,8.779-3.2A1.791,1.791,0,0,0,2898.431,8193.471Z" fill="none"/>
    <path id="Path_68" data-name="Path 68" d="M2889.094,8182.27a4.557,4.557,0,1,0-4.557-4.557A4.562,4.562,0,0,0,2889.094,8182.27Z" fill="none"/>
    <path id="Path_69" data-name="Path 69" d="M2901.707,8192.94c-.728-2.745-3.8-4.842-7.468-5.105-1.558.071-3.216.03-4.82-.01-1.858-.045-3.778-.093-5.6.032-3.4.233-6.391,2.212-7.267,4.812-.685,2.034.068,4.145,2.123,5.94,4.6,4.019,14.359,4.449,19.707.869C2901.151,8197.623,2902.333,8195.3,2901.707,8192.94Zm-12.388,6.376h-.186c-4.147,0-7.788-1.3-9.533-3.41a2.458,2.458,0,0,1-.511-2.622c.625-1.525,2.792-2.65,4.44-2.818a42.614,42.614,0,0,1,5.756-.041,48.7,48.7,0,0,0,5.035.014c1.734.071,4.026,1.192,4.736,2.747a2.446,2.446,0,0,1-.428,2.675C2896.938,8197.986,2893.458,8199.278,2889.319,8199.316Z" fill="#f48120"/>
    <path id="Path_70" data-name="Path 70" d="M2881.266,8177.715a7.828,7.828,0,1,0,7.828-7.828A7.837,7.837,0,0,0,2881.266,8177.715Zm7.828-5.245a5.242,5.242,0,1,1-5.243,5.243A5.248,5.248,0,0,1,2889.094,8172.47Z" fill="#f48120"/>
  </g>
</svg>
