<svg width="40" height="40" viewBox="0 0 40 40" fill="none" xmlns="http://www.w3.org/2000/svg">
<path d="M36.4699 19.1936C36.5103 19.7646 36.5103 20.3378 36.4699 20.9089C36.0038 26.3867 29.8598 29.7491 24.9115 27.3544C23.5447 26.6916 22.3916 25.6578 21.5838 24.3713C20.776 23.0848 20.346 21.5973 20.3428 20.0782C20.3396 18.5591 20.7634 17.0697 21.5658 15.7798C22.3682 14.4899 23.517 13.4516 24.881 12.783C29.8302 10.4106 35.9627 13.682 36.4699 19.1936ZM34.5018 20.0665C34.5018 18.8613 34.1444 17.6834 33.4748 16.6813C32.8052 15.6792 31.8535 14.898 30.74 14.4368C29.6265 13.9756 28.4012 13.8547 27.2192 14.0898C26.0371 14.3249 24.9513 14.9055 24.099 15.7577C23.2468 16.6099 22.6664 17.6958 22.4313 18.8779C22.1962 20.06 22.3169 21.2851 22.7781 22.3986C23.2393 23.5121 24.0204 24.4637 25.0225 25.1333C26.0246 25.8028 27.2028 26.1606 28.408 26.1606C29.2084 26.1608 30.001 26.0031 30.7405 25.697C31.48 25.3908 32.152 24.942 32.718 24.3761C33.284 23.8102 33.733 23.1385 34.0394 22.399C34.3457 21.6596 34.5034 20.8669 34.5034 20.0665H34.5018Z" fill="url(#paint0_linear_2925_152)"/>
<path d="M32.7104 23.083L30.734 23.4783C30.6303 23.0117 30.387 22.588 30.0365 22.2631C29.6859 21.9382 29.2447 21.7276 28.7716 21.6596C28.2985 21.5916 27.8159 21.669 27.388 21.8819C26.9601 22.0949 26.6072 22.4333 26.3762 22.8518C26.2938 23.0041 26.1522 23.5171 26.0732 23.541L24.1997 23.1819C24.393 22.2024 24.9175 21.3193 25.6851 20.6809C26.4527 20.0425 27.4166 19.6877 28.4149 19.6761C29.4132 19.6645 30.3851 19.997 31.1673 20.6174C31.9495 21.2378 32.4944 22.1083 32.7104 23.083Z" fill="url(#paint1_linear_2925_152)"/>
<path d="M26.2001 18.8445C26.7445 18.8445 27.1858 18.4031 27.1858 17.8588C27.1858 17.3144 26.7445 16.873 26.2001 16.873C25.6557 16.873 25.2144 17.3144 25.2144 17.8588C25.2144 18.4031 25.6557 18.8445 26.2001 18.8445Z" fill="url(#paint2_linear_2925_152)"/>
<path d="M30.5064 18.8438C31.0503 18.8438 31.4913 18.4028 31.4913 17.8589C31.4913 17.315 31.0503 16.874 30.5064 16.874C29.9624 16.874 29.5215 17.315 29.5215 17.8589C29.5215 18.4028 29.9624 18.8438 30.5064 18.8438Z" fill="url(#paint3_linear_2925_152)"/>
<path d="M19.1271 19.1936C19.1675 19.7646 19.1675 20.3378 19.1271 20.9089C18.6611 26.3867 12.517 29.7491 7.56873 27.3544C6.20188 26.6916 5.04877 25.6578 4.24097 24.3713C3.43318 23.0848 3.00319 21.5973 3.00002 20.0782C2.99684 18.5591 3.42062 17.0697 4.22303 15.7798C5.02544 14.4899 6.1742 13.4516 7.53827 12.783C12.4874 10.4106 18.6199 13.682 19.1271 19.1936ZM17.159 20.0665C17.159 18.8613 16.8016 17.6834 16.132 16.6813C15.4624 15.6792 14.5107 14.898 13.3972 14.4368C12.2837 13.9756 11.0585 13.8547 9.87638 14.0898C8.69431 14.3249 7.60848 14.9055 6.75625 15.7577C5.90403 16.6099 5.32366 17.6958 5.08853 18.8779C4.8534 20.06 4.97411 21.2851 5.43533 22.3986C5.89656 23.5121 6.67759 24.4637 7.67971 25.1333C8.68182 25.8028 9.85998 26.1606 11.0652 26.1606C12.6814 26.1606 14.2314 25.5185 15.3742 24.3757C16.517 23.2329 17.159 21.6827 17.159 20.0665Z" fill="url(#paint4_linear_2925_152)"/>
<path d="M8.85778 18.8445C9.40217 18.8445 9.84349 18.4031 9.84349 17.8588C9.84349 17.3144 9.40217 16.873 8.85778 16.873C8.31339 16.873 7.87207 17.3144 7.87207 17.8588C7.87207 18.4031 8.31339 18.8445 8.85778 18.8445Z" fill="url(#paint5_linear_2925_152)"/>
<path d="M13.1636 18.8438C13.7075 18.8438 14.1485 18.4028 14.1485 17.8589C14.1485 17.315 13.7075 16.874 13.1636 16.874C12.6197 16.874 12.1787 17.315 12.1787 17.8589C12.1787 18.4028 12.6197 18.8438 13.1636 18.8438Z" fill="url(#paint6_linear_2925_152)"/>
<path d="M6.82373 20.5963L8.80011 20.2018C8.90373 20.6684 9.147 21.0924 9.49754 21.4173C9.84807 21.7422 10.2892 21.9525 10.7623 22.0205C11.2354 22.0884 11.718 22.0108 12.1458 21.7977C12.5736 21.5846 12.9264 21.2464 13.1572 20.8279C13.2395 20.6755 13.382 20.1634 13.4602 20.1387L15.3344 20.4973C15.1419 21.4775 14.6178 22.3617 13.8501 23.0008C13.0824 23.6398 12.1181 23.9948 11.1193 24.0064C10.1205 24.018 9.14816 23.6854 8.36585 23.0643C7.58355 22.4432 7.03896 21.5716 6.82373 20.5963Z" fill="url(#paint7_linear_2925_152)"/>
<defs>
<linearGradient id="paint0_linear_2925_152" x1="19.5511" y1="-11.1418" x2="43.5075" y2="73.1781" gradientUnits="userSpaceOnUse">
<stop stop-color="#FBBF14"/>
<stop offset="0.481" stop-color="#E77023"/>
<stop offset="0.597" stop-color="#E66B24"/>
<stop offset="1" stop-color="#F48120"/>
</linearGradient>
<linearGradient id="paint1_linear_2925_152" x1="18.7529" y1="-10.9018" x2="23.7723" y2="74.4687" gradientUnits="userSpaceOnUse">
<stop stop-color="#FBBF14"/>
<stop offset="0.481" stop-color="#E77023"/>
<stop offset="0.597" stop-color="#E66B24"/>
<stop offset="1" stop-color="#F48120"/>
</linearGradient>
<linearGradient id="paint2_linear_2925_152" x1="18.0542" y1="-10.7308" x2="42.0798" y2="73.5927" gradientUnits="userSpaceOnUse">
<stop stop-color="#FBBF14"/>
<stop offset="0.481" stop-color="#E77023"/>
<stop offset="0.597" stop-color="#E66B24"/>
<stop offset="1" stop-color="#F48120"/>
</linearGradient>
<linearGradient id="paint3_linear_2925_152" x1="22.0364" y1="-11.8709" x2="46.0636" y2="72.4689" gradientUnits="userSpaceOnUse">
<stop stop-color="#FBBF14"/>
<stop offset="0.481" stop-color="#E77023"/>
<stop offset="0.597" stop-color="#E66B24"/>
<stop offset="1" stop-color="#F48120"/>
</linearGradient>
<linearGradient id="paint4_linear_2925_152" x1="3.50088" y1="-6.5748" x2="27.4735" y2="77.7451" gradientUnits="userSpaceOnUse">
<stop stop-color="#FBBF14"/>
<stop offset="0.481" stop-color="#E77023"/>
<stop offset="0.597" stop-color="#E66B24"/>
<stop offset="1" stop-color="#F48120"/>
</linearGradient>
<linearGradient id="paint5_linear_2925_152" x1="2.01499" y1="-6.16101" x2="26.0387" y2="78.1645" gradientUnits="userSpaceOnUse">
<stop stop-color="#FBBF14"/>
<stop offset="0.481" stop-color="#E77023"/>
<stop offset="0.597" stop-color="#E66B24"/>
<stop offset="1" stop-color="#F48120"/>
</linearGradient>
<linearGradient id="paint6_linear_2925_152" x1="5.9956" y1="-7.29901" x2="30.0229" y2="77.0407" gradientUnits="userSpaceOnUse">
<stop stop-color="#FBBF14"/>
<stop offset="0.481" stop-color="#E77023"/>
<stop offset="0.597" stop-color="#E66B24"/>
<stop offset="1" stop-color="#F48120"/>
</linearGradient>
<linearGradient id="paint7_linear_2925_152" x1="3.35987" y1="-6.539" x2="8.38659" y2="78.8856" gradientUnits="userSpaceOnUse">
<stop stop-color="#FBBF14"/>
<stop offset="0.481" stop-color="#E77023"/>
<stop offset="0.597" stop-color="#E66B24"/>
<stop offset="1" stop-color="#F48120"/>
</linearGradient>
</defs>
</svg>
