<svg width="40" height="40" viewBox="0 0 40 40" fill="none" xmlns="http://www.w3.org/2000/svg">
<path d="M20.1707 4C21.421 4 22.5628 4.71001 23.1162 5.83118L26.3339 12.3508L33.5291 13.3965C34.7663 13.5762 35.7942 14.4428 36.1806 15.6318C36.567 16.8209 36.2447 18.1263 35.3494 18.9991L30.143 24.0736L31.3723 31.2399C31.5837 32.4722 31.077 33.7179 30.0656 34.4528C29.0541 35.1877 27.7128 35.2844 26.6061 34.7026L20.1707 31.3193L13.7353 34.7026C12.6287 35.2844 11.2874 35.1877 10.2759 34.4528C9.26442 33.7179 8.7578 32.4722 8.96915 31.2399L10.1981 24.0736L4.99204 18.9991C4.09673 18.1263 3.7745 16.8209 4.16085 15.6318C4.54724 14.4428 5.57514 13.5762 6.81239 13.3965L14.0072 12.3508L17.2253 5.83118L17.279 5.72693C17.8503 4.6661 18.9596 4 20.1707 4ZM16.1888 15.3531L7.28472 16.647L13.7277 22.9272L12.2069 31.7952L20.1707 27.6084L28.1346 31.7952L26.6137 22.9272L33.0567 16.647L24.1526 15.3531L20.1707 7.28465L16.1888 15.3531Z" fill="url(#paint0_linear_13_807)"/>
<defs>
<linearGradient id="paint0_linear_13_807" x1="5.67283" y1="4" x2="39.3141" y2="31.4348" gradientUnits="userSpaceOnUse">
<stop stop-color="#FBBF14"/>
<stop offset="0.5" stop-color="#E77023"/>
<stop offset="0.663462" stop-color="#E66B24"/>
<stop offset="1" stop-color="#F48120"/>
</linearGradient>
</defs>
</svg>
