<svg width="40" height="40" viewBox="0 0 40 40" fill="none" xmlns="http://www.w3.org/2000/svg">
<mask id="mask0_23_98" style="mask-type:alpha" maskUnits="userSpaceOnUse" x="0" y="0" width="40" height="40">
<rect width="39.96" height="39.96" fill="#D9D9D9"/>
</mask>
<g mask="url(#mask0_23_98)">
<path d="M36.4934 17.8403C36.5255 18.4065 36.5255 18.9743 36.4934 19.5405C35.8934 28.9235 25.9934 34.3155 17.3294 33.2495C16.0245 33.0606 14.7379 32.7615 13.4834 32.3555C11.8859 33.8267 9.90268 34.8126 7.76544 35.1982C7.05313 35.36 6.31568 35.3779 5.59644 35.2505C5.40922 35.1712 5.25196 35.0346 5.14722 34.8603C5.04247 34.6861 4.99562 34.4828 5.01343 34.2803C5.04543 33.8043 5.85542 33.0801 6.14642 32.5991C6.90002 31.3664 7.18403 29.9037 6.94641 28.4785C6.79741 27.7525 6.31841 27.4785 5.89441 26.9165C-1.45659 17.0895 6.23243 5.4943 17.3284 4.1333C25.9924 3.0683 35.8874 8.45333 36.4934 17.8403ZM8.1394 33.1284C9.44255 32.7799 10.6556 32.1555 11.6964 31.2974C12.1284 30.9324 12.5895 30.2103 13.2075 30.1973C13.8623 30.3535 14.5044 30.559 15.1284 30.8115C22.6894 32.9445 32.5284 29.2932 34.2874 21.0342C36.2524 11.8232 27.0534 5.48552 18.6874 5.95752C8.43844 6.53552 0.587434 16.9415 7.68243 26.0415C8.13543 26.6225 8.5404 26.7831 8.7594 27.5771C9.08396 28.893 9.06611 30.2701 8.70746 31.5771C8.57046 32.1121 8.3084 32.5964 8.1394 33.1284Z" fill="url(#paint0_linear_23_98)"/>
<path d="M14.7975 18.6895C14.7975 19.269 14.6257 19.8355 14.3037 20.3174C13.9818 20.7992 13.5242 21.1747 12.9888 21.3965C12.4534 21.6182 11.8643 21.676 11.2959 21.563C10.7276 21.4499 10.2054 21.171 9.79568 20.7612C9.38591 20.3515 9.10685 19.8291 8.9938 19.2607C8.88074 18.6924 8.93878 18.1033 9.16054 17.5679C9.38231 17.0325 9.75787 16.5749 10.2397 16.2529C10.7215 15.931 11.288 15.7593 11.8675 15.7593C12.6446 15.7593 13.3899 16.0682 13.9394 16.6177C14.4888 17.1672 14.7975 17.9124 14.7975 18.6895ZM12.8435 18.6895C12.8435 18.4964 12.7863 18.3075 12.679 18.147C12.5718 17.9865 12.4193 17.8615 12.241 17.7876C12.0626 17.7137 11.8664 17.6943 11.6771 17.7319C11.4878 17.7696 11.3139 17.8625 11.1774 17.999C11.0409 18.1355 10.9479 18.3097 10.9102 18.499C10.8726 18.6883 10.8919 18.8846 10.9658 19.063C11.0397 19.2413 11.1648 19.3937 11.3253 19.501C11.4858 19.6082 11.6745 19.6655 11.8675 19.6655C12.1257 19.6645 12.3729 19.5609 12.5551 19.3779C12.7372 19.195 12.8395 18.9476 12.8395 18.6895H12.8435Z" fill="url(#paint1_linear_23_98)"/>
<path d="M22.6393 18.6895C22.6393 19.269 22.4674 19.8355 22.1455 20.3174C21.8235 20.7992 21.3659 21.1747 20.8305 21.3965C20.2952 21.6182 19.706 21.676 19.1377 21.563C18.5693 21.4499 18.0473 21.171 17.6375 20.7612C17.2277 20.3515 16.9487 19.8291 16.8356 19.2607C16.7226 18.6924 16.7805 18.1033 17.0023 17.5679C17.2241 17.0325 17.5996 16.5749 18.0815 16.2529C18.5633 15.931 19.1298 15.7593 19.7093 15.7593C20.4864 15.7593 21.2316 16.0682 21.7811 16.6177C22.3306 17.1672 22.6393 17.9124 22.6393 18.6895ZM20.6853 18.6895C20.6853 18.4964 20.628 18.3075 20.5208 18.147C20.4135 17.9865 20.2611 17.8615 20.0828 17.7876C19.9045 17.7137 19.7082 17.6943 19.5189 17.7319C19.3296 17.7696 19.1556 17.8625 19.0191 17.999C18.8826 18.1355 18.7897 18.3097 18.7521 18.499C18.7144 18.6883 18.7337 18.8846 18.8076 19.063C18.8815 19.2413 19.0065 19.3937 19.167 19.501C19.3275 19.6082 19.5162 19.6655 19.7093 19.6655C19.9674 19.6645 20.2147 19.5609 20.3968 19.3779C20.579 19.195 20.6813 18.9476 20.6813 18.6895H20.6853Z" fill="url(#paint2_linear_23_98)"/>
<path d="M30.6041 18.6895C30.6041 19.269 30.4323 19.8355 30.1104 20.3174C29.7884 20.7992 29.3308 21.1747 28.7954 21.3965C28.26 21.6182 27.6709 21.676 27.1026 21.563C26.5342 21.4499 26.0121 21.171 25.6023 20.7612C25.1925 20.3515 24.9135 19.8291 24.8004 19.2607C24.6874 18.6924 24.7454 18.1033 24.9672 17.5679C25.189 17.0325 25.5645 16.5749 26.0463 16.2529C26.5282 15.931 27.0947 15.7593 27.6742 15.7593C28.4512 15.7593 29.1965 16.0682 29.746 16.6177C30.2955 17.1672 30.6041 17.9124 30.6041 18.6895ZM28.6511 18.6895C28.6513 18.4962 28.5942 18.3073 28.487 18.1465C28.3797 17.9857 28.2272 17.8602 28.0487 17.7861C27.8702 17.712 27.6737 17.6924 27.4842 17.73C27.2946 17.7676 27.1204 17.8605 26.9837 17.9971C26.8469 18.1337 26.7537 18.308 26.716 18.4976C26.6782 18.6871 26.6975 18.8834 26.7714 19.062C26.8454 19.2406 26.9706 19.3931 27.1312 19.5005C27.2919 19.6079 27.4809 19.6655 27.6742 19.6655C27.9331 19.6655 28.1815 19.5624 28.3646 19.3794C28.5478 19.1964 28.6509 18.9484 28.6511 18.6895Z" fill="url(#paint3_linear_23_98)"/>
</g>
<defs>
<linearGradient id="paint0_linear_23_98" x1="4.30718" y1="-12.2625" x2="38.9157" y2="77.9892" gradientUnits="userSpaceOnUse">
<stop stop-color="#FBBF14"/>
<stop offset="0.481" stop-color="#E77023"/>
<stop offset="0.597" stop-color="#E66B24"/>
<stop offset="1" stop-color="#F48120"/>
</linearGradient>
<linearGradient id="paint1_linear_23_98" x1="-0.743231" y1="-10.0602" x2="38.1503" y2="78.5965" gradientUnits="userSpaceOnUse">
<stop stop-color="#FBBF14"/>
<stop offset="0.481" stop-color="#E77023"/>
<stop offset="0.597" stop-color="#E66B24"/>
<stop offset="1" stop-color="#F48120"/>
</linearGradient>
<linearGradient id="paint2_linear_23_98" x1="5.83289" y1="-12.9434" x2="44.7267" y2="75.7131" gradientUnits="userSpaceOnUse">
<stop stop-color="#FBBF14"/>
<stop offset="0.481" stop-color="#E77023"/>
<stop offset="0.597" stop-color="#E66B24"/>
<stop offset="1" stop-color="#F48120"/>
</linearGradient>
<linearGradient id="paint3_linear_23_98" x1="12.5084" y1="-15.8792" x2="51.402" y2="72.7775" gradientUnits="userSpaceOnUse">
<stop stop-color="#FBBF14"/>
<stop offset="0.481" stop-color="#E77023"/>
<stop offset="0.597" stop-color="#E66B24"/>
<stop offset="1" stop-color="#F48120"/>
</linearGradient>
</defs>
</svg>
