<svg xmlns="http://www.w3.org/2000/svg" xmlns:xlink="http://www.w3.org/1999/xlink" width="33.516" height="31.346" viewBox="0 0 33.516 31.346">
  <defs>
    <linearGradient id="linear-gradient" x1="0.039" y1="-0.519" x2="1.199" y2="2.309" gradientUnits="objectBoundingBox">
      <stop offset="0" stop-color="#fbbf14"/>
      <stop offset="0.481" stop-color="#e77023"/>
      <stop offset="0.597" stop-color="#e66b24"/>
      <stop offset="1" stop-color="#f48120"/>
    </linearGradient>
    <linearGradient id="linear-gradient-2" x1="-1.652" y1="-4.406" x2="4.985" y2="10.723" xlink:href="#linear-gradient"/>
    <linearGradient id="linear-gradient-3" x1="-1.868" y1="-4.898" x2="4.769" y2="10.231" xlink:href="#linear-gradient"/>
    <linearGradient id="linear-gradient-4" x1="-2.088" y1="-5.399" x2="4.549" y2="9.73" xlink:href="#linear-gradient"/>
  </defs>
  <g id="Group_146" data-name="Group 146" transform="translate(-697.962 -6511.47)">
    <path id="Path_123" data-name="Path 123" d="M731.454,6525.312a15,15,0,0,1,0,1.7c-.6,9.383-10.5,14.775-19.164,13.709a23.354,23.354,0,0,1-3.846-.894,11.439,11.439,0,0,1-5.718,2.843,5.48,5.48,0,0,1-2.169.052.962.962,0,0,1-.583-.97c.032-.476.842-1.2,1.133-1.681a6.007,6.007,0,0,0,.8-4.121c-.149-.726-.628-1-1.052-1.562-7.351-9.827.338-21.422,11.434-22.783C720.953,6510.54,730.848,6515.925,731.454,6525.312ZM703.1,6540.6a9.415,9.415,0,0,0,3.557-1.831c.432-.365.893-1.087,1.511-1.1a13.436,13.436,0,0,1,1.921.614c7.561,2.133,17.4-1.518,19.159-9.777,1.965-9.211-7.234-15.549-15.6-15.077-10.249.578-18.1,10.984-11.005,20.084.453.581.858.742,1.077,1.536a7.935,7.935,0,0,1-.052,4C703.531,6539.584,703.269,6540.068,703.1,6540.6Z" fill="url(#linear-gradient)"/>
    <g id="Group_145" data-name="Group 145">
      <path id="Path_124" data-name="Path 124" d="M709.758,6526.161a2.93,2.93,0,1,1-2.93-2.93A2.93,2.93,0,0,1,709.758,6526.161Zm-1.954,0a.976.976,0,1,0-.976.976A.976.976,0,0,0,707.8,6526.161Z" fill="url(#linear-gradient-2)"/>
      <path id="Path_125" data-name="Path 125" d="M717.6,6526.161a2.93,2.93,0,1,1-2.93-2.93A2.93,2.93,0,0,1,717.6,6526.161Zm-1.954,0a.976.976,0,1,0-.976.976A.976.976,0,0,0,715.642,6526.161Z" fill="url(#linear-gradient-3)"/>
      <path id="Path_126" data-name="Path 126" d="M725.565,6526.161a2.93,2.93,0,1,1-2.93-2.93A2.93,2.93,0,0,1,725.565,6526.161Zm-1.953,0a.977.977,0,1,0-.977.976A.977.977,0,0,0,723.612,6526.161Z" fill="url(#linear-gradient-4)"/>
    </g>
  </g>
</svg>
