<svg width="2422" height="425" viewBox="0 0 2422 425" fill="none" xmlns="http://www.w3.org/2000/svg">
<path fill-rule="evenodd" clip-rule="evenodd" d="M2173.15 169.975L2248.77 89.2334C2253.15 83.3059 2255.33 79.1554 2255.33 75.6014C2255.33 69.6739 2250.23 67.3003 2234.2 67.3003H2215.12V16.3259H2421.64V67.3003H2394.5C2363.17 67.3003 2357.34 72.0345 2313.62 127.159L2193.99 256.346V335.181C2193.99 355.351 2204.17 362.446 2233.33 362.446H2278.49V411.63H1989.24V362.446H2034.4C2063.53 362.446 2073.74 355.351 2073.74 335.181V256.346L1932.84 100.479C1909.56 73.2278 1912.78 67.3003 1847.95 67.3003V16.3259H2109.54V67.3003H2090.91C2071.96 67.3003 2063.94 70.8542 2063.94 77.9621C2063.94 83.9026 2069.76 88.6368 2073.4 93.371L2144.69 171.065C2153.16 179.872 2163.5 181.013 2173.15 169.975ZM418.009 16.3129H481.111V158.548H422.834C417.671 130.117 399.876 119.053 383.65 104.137C354.375 77.2357 290.975 54.8355 237.653 54.8355C168.831 54.8355 110.749 76.185 110.749 107.574C110.749 194.71 504.341 125.369 504.341 290.122C504.341 376.052 420.032 424.056 268.627 424.056C216.213 424.056 136.897 407.791 90.0997 382.939C75.4299 374.469 69.2041 390.955 66.4543 411.617H1.75709V264.635H60.2803C73.186 301.977 90.9687 309.668 107.325 324.494C135.704 350.578 203.255 369.553 265.202 368.944C358.603 368.023 390.719 347.607 390.719 317.969C390.719 288.345 358.954 281.224 256.603 265.231L169.7 251.002C71.6296 236.177 0.226562 214.257 0.226562 136.031C0.226562 54.8355 90.5536 3.86111 233.373 3.86111C293.556 3.86111 343.908 11.9029 392.236 39.219C405.622 47.9222 418.177 48.9599 418.009 16.3129ZM1649.49 254.453L1650.73 96.3673C1650.73 75.6273 1639.94 68.5194 1609.11 68.5194H1572.88V19.335H1803.37V68.5194H1773.33C1742.47 68.5194 1731.68 75.6403 1731.68 96.3673V414.626L1641.47 413.913L1349.32 137.263V338.178C1349.32 358.334 1360.11 366.025 1390.94 366.025H1431.05V414.626H1191.68V366.025H1231.34C1262.17 366.025 1272.96 358.321 1272.96 338.178V96.3673C1272.96 75.6273 1262.17 68.5194 1231.34 68.5194H1191.68V19.335H1398.64L1649.49 254.453ZM877.439 0.87793C693.75 0.87793 578.766 82.0866 578.766 212.454C578.766 340.486 692.155 421.073 871.836 421.073C1062.69 421.073 1173.7 341.667 1173.7 205.943C1173.71 83.8636 1053.92 0.87793 877.439 0.87793ZM873.263 369.527C771.586 369.527 713.141 310.849 713.141 209.497C713.141 110.531 774.129 51.8523 878.347 51.8523C978.325 51.8523 1036.77 111.724 1036.77 213.66C1036.77 313.222 977.468 369.527 873.263 369.527Z" fill="black"/>
</svg>
