<svg width="2422" height="424" viewBox="0 0 2422 424" fill="none" xmlns="http://www.w3.org/2000/svg">
<path fill-rule="evenodd" clip-rule="evenodd" d="M2173.15 169.097L2248.77 88.3555C2253.15 82.4279 2255.33 78.2774 2255.33 74.7235C2255.33 68.7959 2250.23 66.4223 2234.2 66.4223H2215.12V15.448H2421.64V66.4223H2394.5C2363.17 66.4223 2357.34 71.1566 2313.62 126.281L2193.99 255.468V334.304C2193.99 354.473 2204.17 361.568 2233.33 361.568H2278.49V410.752H1989.24V361.568H2034.4C2063.53 361.568 2073.74 354.473 2073.74 334.304V255.468L1932.84 99.601C1909.56 72.3499 1912.78 66.4223 1847.95 66.4223V15.448H2109.54V66.4223H2090.91C2071.96 66.4223 2063.94 69.9762 2063.94 77.0841C2063.94 83.0246 2069.76 87.7589 2073.4 92.4931L2144.69 170.187C2153.16 178.994 2163.5 180.135 2173.15 169.097ZM418.009 15.435H481.111V157.67H422.834C417.671 129.239 399.876 118.175 383.65 103.259C354.375 76.3577 290.975 53.9575 237.653 53.9575C168.831 53.9575 110.749 75.3071 110.749 106.696C110.749 193.832 504.341 124.492 504.341 289.244C504.341 375.174 420.032 423.178 268.627 423.178C216.213 423.178 136.897 406.913 90.0997 382.061C75.4299 373.591 69.2041 390.077 66.4543 410.739H1.75709V263.757H60.2803C73.186 301.099 90.9687 308.79 107.325 323.616C135.704 349.7 203.255 368.676 265.202 368.066C358.603 367.145 390.719 346.729 390.719 317.092C390.719 287.467 358.954 280.346 256.603 264.353L169.7 250.124C71.6296 235.299 0.226562 213.379 0.226562 135.153C0.226562 53.9576 90.5536 2.98318 233.373 2.98318C293.556 2.98318 343.908 11.025 392.236 38.341C405.622 47.0443 418.177 48.0819 418.009 15.435ZM1649.49 253.575L1650.73 95.4893C1650.73 74.7494 1639.94 67.6415 1609.11 67.6415H1572.88V18.4571H1803.37V67.6415H1773.33C1742.47 67.6415 1731.68 74.7624 1731.68 95.4893V413.748L1641.47 413.035L1349.32 136.386V337.3C1349.32 357.456 1360.11 365.148 1390.94 365.148H1431.05V413.748H1191.68V365.148H1231.34C1262.17 365.148 1272.96 357.443 1272.96 337.3V95.4893C1272.96 74.7494 1262.17 67.6415 1231.34 67.6415H1191.68V18.4571H1398.64L1649.49 253.575ZM877.439 0C693.75 0 578.766 81.2087 578.766 211.576C578.766 339.608 692.155 420.195 871.836 420.195C1062.69 420.195 1173.7 340.789 1173.7 205.065C1173.71 82.9857 1053.92 0 877.439 0ZM873.263 368.65C771.586 368.65 713.141 309.971 713.141 208.619C713.141 109.653 774.129 50.9744 878.347 50.9744C978.325 50.9744 1036.77 110.846 1036.77 212.782C1036.77 312.344 977.468 368.65 873.263 368.65Z" fill="white"/>
</svg>
