<svg width="90" height="16" viewBox="0 0 90 16" fill="none" xmlns="http://www.w3.org/2000/svg">
<g clip-path="url(#clip0_2934_311)">
<path d="M32.0634 16C28.8 16 25.776 15.0182 23.76 13.1873C23.0391 12.533 22.4647 11.7308 22.0751 10.8344C21.6856 9.93803 21.4898 8.96799 21.501 7.98909C21.4988 7.01423 21.6986 6.04969 22.0877 5.15755C22.4767 4.26541 23.0464 3.46543 23.76 2.80909C25.632 1.09091 28.944 0 32.0634 0C35.514 0 38.277 0.878182 40.3884 2.81273C41.0992 3.46884 41.6651 4.26897 42.049 5.1609C42.433 6.05284 42.6265 7.01653 42.6168 7.98909C42.612 8.96262 42.4121 9.92508 42.0291 10.8185C41.6461 11.7118 41.088 12.5176 40.3884 13.1873C38.421 15.0291 35.3322 16 32.0634 16V13.8945C33.7932 13.8945 35.3988 13.2909 36.5202 12.1636C37.6416 11.0364 38.151 9.66909 38.151 7.98182C38.151 6.37091 37.5912 4.86545 36.5202 3.8C35.4132 2.7 33.7698 2.08 32.0634 2.08C30.357 2.08 28.7064 2.69455 27.5994 3.8C26.532 4.86727 25.9794 6.37818 25.9794 7.98182C25.9634 8.75229 26.0983 9.51837 26.3763 10.236C26.6543 10.9537 27.07 11.6088 27.5994 12.1636C28.7064 13.2782 30.3462 13.8945 32.0634 13.8945V16ZM8.23501 0C6.49081 0 4.50901 0.330909 2.83501 1.09091C1.27261 1.79636 1.10915e-05 2.92909 1.10915e-05 4.80727C-0.00233626 5.79083 0.367983 6.73801 1.03501 7.45455C1.48681 7.87636 2.21581 8.59273 4.12021 9.01455C4.97161 9.19636 6.79141 9.48909 8.60401 9.68182C10.4166 9.87454 12.1734 10.0455 12.8934 10.24C13.4658 10.3873 14.4288 10.5873 14.4288 11.6782C14.4288 12.7691 13.4154 13.0964 13.239 13.1673C13.0626 13.2382 11.8458 13.8018 9.66061 13.8018C8.21278 13.7612 6.77811 13.512 5.40001 13.0618C4.58461 12.7673 3.72961 12.38 2.93221 11.3964C2.61041 10.9332 2.43188 10.3839 2.41921 9.81818H0.439211V15.4182H2.63881V14.66C2.63846 14.6038 2.65296 14.5484 2.68082 14.4998C2.70867 14.4511 2.74887 14.4107 2.79728 14.383C2.84569 14.3552 2.90055 14.3409 2.95623 14.3417C3.0119 14.3424 3.06636 14.3582 3.11401 14.3873C4.15031 14.8428 5.22825 15.1947 6.33241 15.4382C7.48801 15.6818 8.23501 15.8582 9.67141 15.8582C11.1871 15.8873 12.6977 15.6719 14.1462 15.22C15.1081 14.9537 16.0105 14.5038 16.8048 13.8945C17.2516 13.5479 17.6127 13.1014 17.8597 12.59C18.1067 12.0786 18.233 11.5163 18.2286 10.9473C18.2361 9.86627 17.8231 8.82552 17.0784 8.04909C16.6643 7.64318 16.1846 7.31174 15.66 7.06909C15.096 6.81171 14.5105 6.60544 13.9104 6.45273C12.7692 6.17091 10.206 5.81818 8.98021 5.69455C7.69501 5.56 5.46481 5.37273 4.57381 5.09455C4.30381 5.00909 3.75301 4.74545 3.75301 4.1C3.75301 3.64 4.00501 3.25091 4.50181 2.93636C5.29201 2.43636 6.88681 2.12545 8.55001 2.12545C10.1599 2.10582 11.7566 2.42083 13.2408 3.05091C13.6396 3.22639 14.0146 3.45245 14.3568 3.72364C14.9147 4.20492 15.301 4.85763 15.4566 5.58182H17.2332V0.707273H15.2532V1.27273C15.2532 1.45455 15.0732 1.69455 14.7132 1.49636C13.8204 1.02727 11.3112 0.0127273 8.23501 0ZM51.7032 0.894545L61.38 9.71454L61.281 3.77636C61.2702 2.99636 61.1298 2.67091 60.2946 2.67091H58.4766V0.894545H66.7566V2.67091H64.98C64.1304 2.67091 64.08 2.94727 64.0656 3.77636L64.215 15.1236H61.38L50.2326 5.07636V12.2055C50.2416 12.9818 50.2776 13.3473 51.0678 13.3473H53.0478V15.1236H44.9316V13.3473H46.8324C47.5416 13.3473 47.5128 12.6636 47.5128 12.1655V3.84364C47.5128 3.29818 47.4372 2.67273 46.3248 2.67273H44.784V0.894545H51.7032ZM76.203 13.3436C76.3667 13.3436 76.5302 13.3333 76.6926 13.3127C76.777 13.2872 76.8548 13.2433 76.9207 13.1843C76.9866 13.1253 77.039 13.0525 77.0742 12.9709C77.0991 12.8446 77.1117 12.7161 77.112 12.5873V9.77818C77.112 9.68364 77.112 9.68182 76.9932 9.53273C76.8744 9.38364 71.9244 3.71455 71.6994 3.46C71.4186 3.15091 70.9254 2.67273 70.1748 2.67273H68.4558V0.894545H78.1578V2.66909H76.9878C76.7178 2.66909 76.5378 2.92909 76.7682 3.21455C76.7682 3.21455 80.0334 7.16 80.064 7.20182C80.0946 7.24364 80.1216 7.25273 80.163 7.21455C80.2044 7.17636 83.5092 3.25091 83.5344 3.21455C83.5735 3.16276 83.597 3.10074 83.6022 3.03585C83.6074 2.97095 83.594 2.90592 83.5637 2.84847C83.5333 2.79103 83.4873 2.74359 83.4311 2.71179C83.3748 2.67999 83.3107 2.66517 83.2464 2.66909H82.0458V0.894545H90V2.67273H88.2234C87.579 2.67273 87.3234 2.79273 86.832 3.34545L81.477 9.51636C81.4246 9.59276 81.4015 9.68585 81.4122 9.77818V12.5855C81.4131 12.7143 81.4264 12.8428 81.4518 12.9691C81.4864 13.0507 81.5384 13.1236 81.604 13.1827C81.6697 13.2418 81.7473 13.2856 81.8316 13.3109C81.9927 13.3324 82.1551 13.3427 82.3176 13.3418H84.1338V15.12H74.4822V13.3418L76.203 13.3436Z" fill="black"/>
</g>
<defs>
<clipPath id="clip0_2934_311">
<rect width="90" height="16" fill="white"/>
</clipPath>
</defs>
</svg>
