<svg xmlns="http://www.w3.org/2000/svg" xmlns:xlink="http://www.w3.org/1999/xlink" width="31.564" height="31.059" viewBox="0 0 31.564 31.059">
  <defs>
    <linearGradient id="linear-gradient" x1="-0.49" y1="-1.486" x2="3.295" y2="5.8" gradientUnits="objectBoundingBox">
      <stop offset="0" stop-color="#fbbf14"/>
      <stop offset="0.481" stop-color="#e77023"/>
      <stop offset="0.597" stop-color="#e66b24"/>
      <stop offset="1" stop-color="#f48120"/>
    </linearGradient>
    <linearGradient id="linear-gradient-2" x1="-0.7" y1="-2.568" x2="2.989" y2="7.201" xlink:href="#linear-gradient"/>
    <linearGradient id="linear-gradient-3" x1="-2.057" y1="-3.219" x2="5.587" y2="7.908" xlink:href="#linear-gradient"/>
    <linearGradient id="linear-gradient-4" x1="-1.049" y1="-4.19" x2="4.336" y2="12.137" xlink:href="#linear-gradient"/>
    <linearGradient id="linear-gradient-5" x1="-2.387" y1="-3.321" x2="8.043" y2="10.334" xlink:href="#linear-gradient"/>
    <linearGradient id="linear-gradient-6" x1="-1.298" y1="-4.894" x2="5.319" y2="14.954" xlink:href="#linear-gradient"/>
    <linearGradient id="linear-gradient-7" x1="-0.704" y1="-2.898" x2="2.418" y2="5.912" xlink:href="#linear-gradient"/>
  </defs>
  <g id="Group_144" data-name="Group 144" transform="translate(-821.019 -6803.584)">
    <g id="Group_143" data-name="Group 143">
      <path id="Path_116" data-name="Path 116" d="M822.507,6823.23a5.957,5.957,0,0,1-.659-1.409,13.616,13.616,0,0,1,9.8-17.947,11.21,11.21,0,0,1,1.748-.288,1.024,1.024,0,1,1,.3,2.023,23.512,23.512,0,0,0-2.37.43,11.61,11.61,0,0,0-7.718,14.717,9.3,9.3,0,0,1,.641,1.809A1.036,1.036,0,0,1,822.507,6823.23Z" fill="url(#linear-gradient)"/>
      <path id="Path_117" data-name="Path 117" d="M837.631,6818.733c-.273-1.4.212-2.856-.763-4.042a2.879,2.879,0,0,0-4.949.781,6.144,6.144,0,0,0-.2,2.087,12.1,12.1,0,0,1-3.024,7.22,13.81,13.81,0,0,1-1.614,1.569c-1,.554-1.978-.632-1.188-1.634.647-.82,1.477-1.389,2.121-2.333,1.374-2.018,1.5-3.43,1.664-5.782a4.936,4.936,0,0,1,9.865-.315,3.876,3.876,0,0,1-.064,1.208c-.14.169-.69.329-.872.527Z" fill="url(#linear-gradient-2)"/>
      <path id="Path_118" data-name="Path 118" d="M834.432,6815.758a.962.962,0,0,1,1.165.905c.321,3.416-1.348,7.646-3.5,10.246a13.2,13.2,0,0,1-1.656,1.716,1.006,1.006,0,0,1-1.494-1.176,10.133,10.133,0,0,1,1.339-1.524,13.811,13.811,0,0,0,3.275-7.606c.05-.529-.017-1.359.079-1.83A1.112,1.112,0,0,1,834.432,6815.758Z" fill="url(#linear-gradient-3)"/>
      <path id="Path_119" data-name="Path 119" d="M844.185,6816.251a8.282,8.282,0,0,0-2.036.255,7.589,7.589,0,0,0-5.473-6.649c-.424-.118-.886-.142-1.275-.252a1.013,1.013,0,0,1-.57-1.593c.448-.6,1.147-.388,1.783-.257A9.717,9.717,0,0,1,844.185,6816.251Z" fill="url(#linear-gradient-4)"/>
      <path id="Path_120" data-name="Path 120" d="M828.7,6809.712a1.023,1.023,0,0,1,1.212,1.276c-.076.366-.771.883-1.036,1.19a7.745,7.745,0,0,0-1.812,5.7c.032.429.209.886.248,1.28.123,1.257-1.6,1.741-2.026.243a9.721,9.721,0,0,1,1.33-7.57C826.966,6811.309,828.127,6809.832,828.7,6809.712Z" fill="url(#linear-gradient-5)"/>
      <path id="Path_121" data-name="Path 121" d="M839.716,6804.686a3.066,3.066,0,0,1,1.416.524,13.873,13.873,0,0,1,4.785,4.378,6.419,6.419,0,0,1,.656,1.126,1.015,1.015,0,0,1-1.26,1.26c-.5-.1-.961-1.112-1.267-1.533a11.9,11.9,0,0,0-3.264-3.1,9.423,9.423,0,0,1-1.721-1.015A1.007,1.007,0,0,1,839.716,6804.686Z" fill="url(#linear-gradient-6)"/>
    </g>
    <path id="Path_122" data-name="Path 122" d="M852.583,6826.4a8.245,8.245,0,1,1-8.245-8.245A8.246,8.246,0,0,1,852.583,6826.4Zm-3.967-3.442a1.52,1.52,0,0,0-1.907-.2l-3.956,3.933c-.892-.753-1.609-2.207-3-1.6a1.509,1.509,0,0,0-.562,2.24,28.517,28.517,0,0,0,2.71,2.7,1.493,1.493,0,0,0,1.779-.058l5.052-5.066A1.517,1.517,0,0,0,848.616,6822.956Z" fill="url(#linear-gradient-7)"/>
  </g>
</svg>
