<svg xmlns="http://www.w3.org/2000/svg" xmlns:xlink="http://www.w3.org/1999/xlink" width="41.992" height="24.665" viewBox="0 0 41.992 24.665">
  <defs>
    <linearGradient id="linear-gradient" x1="0.406" y1="0.104" x2="0.705" y2="1.368" gradientUnits="objectBoundingBox">
      <stop offset="0" stop-color="#fbbf14"/>
      <stop offset="0.481" stop-color="#e77023"/>
      <stop offset="0.597" stop-color="#e66b24"/>
      <stop offset="1" stop-color="#f48120"/>
    </linearGradient>
  </defs>
  <path id="Path_132" data-name="Path 132" d="M734.439,6713.344a3.65,3.65,0,0,0-4.277-.441,3.752,3.752,0,0,0-1.861,3.947,3.131,3.131,0,0,0,.266.77c.034.074.066.144.093.21l-8.973,8.9a4.078,4.078,0,0,0-2.355-.329,2.93,2.93,0,0,0-.7.257c-.076.035-.181.083-.27.12l-3.628-3.627c.038-.1.089-.225.125-.312a3.524,3.524,0,0,0-1.4-4.527,4.189,4.189,0,0,0-4.566.374,3.6,3.6,0,0,0-.948,4.113,1.7,1.7,0,0,0,.17.349l.005.008-6.946,6.94-.027-.017a2.022,2.022,0,0,0-.357-.185,3.789,3.789,0,0,0-3.261.343,3.724,3.724,0,0,0-1.774,2.686,4.855,4.855,0,0,0,0,.942h0a3.526,3.526,0,0,0,2.186,2.931,3.966,3.966,0,0,0,1.474.278,4.06,4.06,0,0,0,2.533-.865,3.53,3.53,0,0,0,1.21-3.5,3.075,3.075,0,0,0-.266-.77c-.034-.075-.067-.145-.093-.212l6.963-6.944a3.8,3.8,0,0,0,3.355,0l3.613,3.618c-.036.1-.083.231-.119.328a4.228,4.228,0,0,0-.254.826,3.525,3.525,0,0,0,1.549,3.584,4.131,4.131,0,0,0,4.3,0,3.6,3.6,0,0,0,1.537-3.677,2.776,2.776,0,0,0-.26-.751c-.04-.086-.1-.213-.133-.308l8.949-8.943c.079.033.163.071.227.1a3.549,3.549,0,0,0,.593.228,3.722,3.722,0,0,0,4.184-1.993A3.586,3.586,0,0,0,734.439,6713.344Zm-35.526,20.047a1.436,1.436,0,1,1-1.435-1.435A1.438,1.438,0,0,1,698.913,6733.391Zm10.508-10.508a1.433,1.433,0,1,1,1.433-1.433A1.434,1.434,0,0,1,709.421,6722.883Zm7.2,7.19a1.431,1.431,0,1,1,1.431,1.43A1.433,1.433,0,0,1,716.616,6730.073Zm16.79-13.924a1.434,1.434,0,1,1-1.434-1.435A1.436,1.436,0,0,1,733.406,6716.149Z" transform="translate(-693.727 -6712.407)" fill="url(#linear-gradient)"/>
</svg>
