<svg xmlns="http://www.w3.org/2000/svg" xmlns:xlink="http://www.w3.org/1999/xlink" width="39.459" height="36.34" viewBox="0 0 39.459 36.34">
  <defs>
    <linearGradient id="linear-gradient" x1="-0.142" y1="-0.709" x2="1.293" y2="2.249" gradientUnits="objectBoundingBox">
      <stop offset="0" stop-color="#fbbf14"/>
      <stop offset="0.481" stop-color="#e77023"/>
      <stop offset="0.597" stop-color="#e66b24"/>
      <stop offset="1" stop-color="#f48120"/>
    </linearGradient>
    <linearGradient id="linear-gradient-2" x1="-2.891" y1="-4.257" x2="4.14" y2="5.986" xlink:href="#linear-gradient"/>
  </defs>
  <g id="Group_173" data-name="Group 173" transform="translate(-573.755 -6604.809)">
    <path id="Path_150" data-name="Path 150" d="M576.505,6623.272c.068,1.143.023,2.371-.021,3.559a33.291,33.291,0,0,0,.01,3.961,1.772,1.772,0,0,0,.815,1.4c.026.017.066.039.114.064v-10.3A2.186,2.186,0,0,0,576.505,6623.272Z" fill="none"/>
    <path id="Path_151" data-name="Path 151" d="M603.424,6634.017l0-12.8H583.542l-.018,12.925a1.584,1.584,0,0,1-1.308,1.241,15.967,15.967,0,0,1-2.318.081v2.76a.728.728,0,0,0,.727.727H606a.728.728,0,0,0,.727-.727V6635.5c-.543,0-1.116-.034-1.746-.088A1.579,1.579,0,0,1,603.424,6634.017Zm-5.7-2.987-5.244,3.845a1.665,1.665,0,0,1-.992.327,1.705,1.705,0,0,1-.762-.183,1.673,1.673,0,0,1-.919-1.5v-7.691a1.68,1.68,0,0,1,2.673-1.355l5.246,3.846a1.68,1.68,0,0,1,0,2.71Z" fill="none"/>
    <path id="Path_152" data-name="Path 152" d="M606.32,6632.471l.037.036h.368v-10.7h-.4Z" fill="none"/>
    <path id="Path_153" data-name="Path 153" d="M595.527,6607.57a13.1,13.1,0,0,0-9.963,2.57,12.581,12.581,0,0,0-4.854,8.6h25.546A12.968,12.968,0,0,0,595.527,6607.57Z" fill="none"/>
    <path id="Path_154" data-name="Path 154" d="M592.286,6627.4v4.555l3.106-2.278Z" fill="none"/>
    <path id="Path_155" data-name="Path 155" d="M580.646,6632.471V6621.8H579.9v10.7h.712Z" fill="none"/>
    <path id="Path_156" data-name="Path 156" d="M610.472,6630.792a33.291,33.291,0,0,0,.01-3.961c-.044-1.188-.089-2.416-.021-3.568a2.082,2.082,0,0,0-1.261-1.458v10.6a3,3,0,0,0,.457-.214A1.772,1.772,0,0,0,610.472,6630.792Z" fill="none"/>
    <path id="Path_157" data-name="Path 157" d="M609.064,6619.1l-.108-.018-.008-.108a15.522,15.522,0,0,0-30.92-.088l-.011.126H577.7v.125l-.108.024a4.55,4.55,0,0,0-3.719,4.1,63.2,63.2,0,0,0,0,7.688,4.435,4.435,0,0,0,3.117,3.95,5.266,5.266,0,0,0,.592.115l.118.017v3.182a2.93,2.93,0,0,0,2.926,2.926H606a2.929,2.929,0,0,0,2.926-2.926v-3.148l.114-.02c2.542-.443,3.867-1.758,4.052-4.02a61.859,61.859,0,0,0,0-7.764A4.6,4.6,0,0,0,609.064,6619.1ZM577.7,6632.677l-.192-.083a2.655,2.655,0,0,1-.35-.175,2.04,2.04,0,0,1-.938-1.6,33.472,33.472,0,0,1-.011-4c.044-1.181.088-2.4.02-3.541a2.407,2.407,0,0,1,1.281-1.686l.19-.078Zm2.72-13.812a12.86,12.86,0,0,1,4.976-8.944,13.378,13.378,0,0,1,10.174-2.624,13.241,13.241,0,0,1,10.976,11.57l.014.15H580.4Zm-.8,2.663h1.3v10.994a.4.4,0,0,1-.261.261h-1.039Zm27.38,16.7a1,1,0,0,1-1,1H580.625a1,1,0,0,1-1-1v-3.043l.142,0a16.83,16.83,0,0,0,2.412-.075,1.307,1.307,0,0,0,1.076-1l.014-13.169H603.7l0,13.057a1.3,1.3,0,0,0,1.3,1.135c.675.058,1.284.086,1.861.088H607Zm0-5.44h-.7a.4.4,0,0,1-.261-.261v-10.994H607Zm3.745-1.967a2.037,2.037,0,0,1-.938,1.6,3.66,3.66,0,0,1-.705.309l-.18.058v-11.258h.249c.638,0,1.559,1.126,1.565,1.742-.068,1.148-.024,2.369.02,3.551A33.456,33.456,0,0,1,610.747,6630.816Z" fill="url(#linear-gradient)"/>
    <path id="Path_158" data-name="Path 158" d="M598.14,6629.675a1.41,1.41,0,0,0-.574-1.133l-5.245-3.845a1.4,1.4,0,0,0-2.234,1.132v7.691a1.4,1.4,0,0,0,.769,1.253,1.424,1.424,0,0,0,1.465-.12l5.244-3.845A1.407,1.407,0,0,0,598.14,6629.675Zm-6.131,2.822v-5.644l3.85,2.821Z" fill="url(#linear-gradient-2)"/>
  </g>
</svg>
