<svg xmlns="http://www.w3.org/2000/svg" width="25.567" height="32.027" viewBox="0 0 25.567 32.027">
  <g id="Group_178" data-name="Group 178" transform="translate(-777.282 -6919.434)">
    <path id="Path_166" data-name="Path 166" d="M799.41,6943.018c-.579-1.268-2.643-2.284-4.1-2.346a48.454,48.454,0,0,1-5.071-.014,42.293,42.293,0,0,0-5.66.039c-1.458.148-3.363,1.146-3.875,2.4a1.808,1.808,0,0,0,.4,1.925c1.643,1.986,5.172,3.185,9.184,3.16,3.875-.036,7.239-1.261,8.779-3.2A1.794,1.794,0,0,0,799.41,6943.018Z" fill="none"/>
    <path id="Path_167" data-name="Path 167" d="M790.072,6931.817a4.557,4.557,0,1,0-4.556-4.557A4.562,4.562,0,0,0,790.072,6931.817Z" fill="none"/>
    <path id="Path_168" data-name="Path 168" d="M802.685,6942.487c-.728-2.744-3.8-4.842-7.468-5.1-1.558.071-3.216.03-4.82-.01-1.857-.045-3.778-.093-5.6.032-3.4.233-6.391,2.212-7.266,4.812-.686,2.034.068,4.144,2.122,5.94,4.6,4.019,14.359,4.45,19.707.87C802.13,6947.17,803.312,6944.848,802.685,6942.487Zm-12.387,6.376h-.186c-4.148,0-7.789-1.3-9.534-3.41a2.455,2.455,0,0,1-.51-2.622c.625-1.525,2.791-2.65,4.439-2.818a42.536,42.536,0,0,1,5.756-.041,48.561,48.561,0,0,0,5.035.014c1.734.071,4.026,1.192,4.736,2.746a2.446,2.446,0,0,1-.427,2.675C797.916,6947.533,794.436,6948.824,790.3,6948.863Z" fill="#bcbec0"/>
    <path id="Path_169" data-name="Path 169" d="M782.244,6927.262a7.828,7.828,0,1,0,7.828-7.828A7.836,7.836,0,0,0,782.244,6927.262Zm7.828-5.245a5.242,5.242,0,1,1-5.242,5.243A5.249,5.249,0,0,1,790.072,6922.017Z" fill="#bcbec0"/>
  </g>
</svg>
