<svg xmlns="http://www.w3.org/2000/svg" width="27.291" height="27.248" viewBox="0 0 27.291 27.248">
  <g id="Group_174" data-name="Group 174" transform="translate(-553.655 -6921.824)">
    <path id="Path_159" data-name="Path 159" d="M567.037,6921.845a1.282,1.282,0,0,1,1.029.246l11.561,8.341a3.445,3.445,0,0,1,1.228,1.918c.182,5.129.025,10.291.08,15.432a1.3,1.3,0,0,1-1.274,1.22c-2.837-.17-5.928.22-8.735,0a1.21,1.21,0,0,1-1.218-1c-.193-1.79.139-3.921,0-5.75a2.5,2.5,0,0,0-4.993-.054c-.146,1.865.117,3.914,0,5.8A1.207,1.207,0,0,1,563.5,6949c-2.788.219-5.86-.167-8.678,0a1.243,1.243,0,0,1-1.168-1.218v-14.808a3.445,3.445,0,0,1,1.689-2.812c3.666-2.824,7.6-5.324,11.278-8.135A1.3,1.3,0,0,1,567.037,6921.845Zm11.564,24.878v-13.91c0-.028-.184-.314-.217-.379l-11.092-8.056-.131.031-10.985,7.942a3.185,3.185,0,0,0-.242.408v13.909h6.616v-5.016a5.644,5.644,0,0,1,.641-1.744,4.755,4.755,0,0,1,8.133-.034,5.632,5.632,0,0,1,.662,1.778v5.071Z" fill="#bcbec0"/>
  </g>
</svg>
