<svg xmlns="http://www.w3.org/2000/svg" width="22.039" height="31.398" viewBox="0 0 22.039 31.398">
  <g id="Group_176" data-name="Group 176" transform="translate(-629.762 -6919.748)">
    <path id="Path_162" data-name="Path 162" d="M641.027,6919.748c1.251.351.955,1.558.979,2.571a8.57,8.57,0,0,1,7.348,7.924c.168,2.711-.143,5.585.012,8.313.11.658.654.76,1.088,1.116a3.688,3.688,0,0,1-2.11,6.522l-15.3-.01a3.694,3.694,0,0,1-1.9-6.541c.431-.347.945-.432,1.055-1.087.163-2.741-.168-5.648.015-8.371a8.576,8.576,0,0,1,7.345-7.866c.024-1.013-.272-2.22.979-2.571Zm-.808,4.915a6.2,6.2,0,0,0-5.557,5.645c-.2,2.67.2,5.6,0,8.265a3.771,3.771,0,0,1-1.1,2.386c-.363.333-1,.549-1.215.989a1.229,1.229,0,0,0,1.059,1.8h14.7a1.215,1.215,0,0,0,1.132-1.749c-.224-.528-.789-.649-1.193-1.01a3.732,3.732,0,0,1-1.127-2.3c-.245-2.674.191-5.681-.009-8.377A6.184,6.184,0,0,0,640.219,6924.663Z" fill="#bcbec0"/>
    <path id="Path_163" data-name="Path 163" d="M638.135,6948.656c1.634.128,3.711-.232,5.294,0a1.227,1.227,0,0,1-.052,2.426c-1.614.193-3.591-.118-5.242-.009A1.226,1.226,0,0,1,638.135,6948.656Z" fill="#bcbec0"/>
  </g>
</svg>
