<svg width="40" height="40" viewBox="0 0 40 40" fill="none" xmlns="http://www.w3.org/2000/svg">
<mask id="mask0_23_161" style="mask-type:alpha" maskUnits="userSpaceOnUse" x="0" y="0" width="40" height="40">
<rect width="39.96" height="39.96" fill="#D9D9D9"/>
</mask>
<g mask="url(#mask0_23_161)">
<path d="M4.21228 34.7877C4.15657 34.7197 4.11695 34.6401 4.09636 34.5546C4.07576 34.4691 4.07472 34.38 4.09335 34.2941L6.46501 27.8868C4.39554 24.6703 3.58835 20.8025 4.19865 17.0268C4.80895 13.2512 6.79368 9.83425 9.77109 7.43361C12.7485 5.03297 16.5084 3.81792 20.3276 4.02212C24.1468 4.22633 27.7556 5.83536 30.46 8.5398C33.1645 11.2442 34.7736 14.853 34.9778 18.6722C35.182 22.4914 33.9669 26.2515 31.5663 29.229C29.1656 32.2064 25.7489 34.1911 21.9733 34.8014C18.1976 35.4117 14.3297 34.6041 11.1132 32.5347L4.72027 34.9208C4.63099 34.9334 4.54006 34.9284 4.45285 34.9055C4.36564 34.8826 4.28387 34.8425 4.21228 34.7877ZM29.7434 29.7453C31.5896 27.8985 32.9022 25.5869 33.5424 23.0551C34.1826 20.5233 34.1264 17.8656 33.3799 15.3632C32.6333 12.8607 31.2242 10.6065 29.3016 8.83927C27.379 7.07203 25.0144 5.85758 22.458 5.32409C19.9017 4.7906 17.2486 4.95779 14.7796 5.80854C12.3107 6.65929 10.1176 8.16158 8.43247 10.1566C6.74736 12.1516 5.6329 14.5652 5.20701 17.1417C4.78112 19.7182 5.05964 22.3618 6.01311 24.793C6.47282 25.8316 6.99186 26.843 7.56762 27.8221L5.47033 33.5297L11.1786 31.4322C11.7562 31.665 12.2506 32.0634 12.8019 32.3522C15.5404 33.7576 18.6528 34.2625 21.6951 33.7943C24.7374 33.3262 27.5541 31.9091 29.7434 29.7453Z" fill="url(#paint0_linear_23_161)"/>
<path d="M19.5001 26.4521C19.7872 26.7392 21.9329 25.029 22.243 24.7631C22.5123 24.5312 23.394 23.5918 23.5971 23.5035C24.0948 23.2869 24.3199 23.739 24.2766 24.1833C24.0974 25.985 22.3458 28.7922 20.6919 29.5898C20.0969 29.8475 19.4461 29.9499 18.8007 29.8868C18.1553 29.8237 17.5365 29.5971 17.0027 29.229C16.4688 28.8608 16.0374 28.363 15.749 27.7822C15.4606 27.2014 15.3246 26.5569 15.354 25.9091C15.4052 25.48 15.4927 25.0559 15.6156 24.6416C16.0726 22.7057 16.742 20.8141 17.1446 18.8655C16.6656 18.8884 15.3208 19.3037 14.9717 19.0293C14.9149 18.9782 14.8682 18.9169 14.8341 18.8485C14.7535 18.0805 14.7367 17.3069 14.784 16.5362C14.7853 16.4293 14.8223 16.3259 14.8891 16.2425C14.9559 16.1591 15.0487 16.1004 15.1527 16.0758L20.1092 15.0981C20.3612 15.1015 20.6096 15.1582 20.8383 15.2641C21.067 15.3699 21.2708 15.5228 21.4363 15.7128C21.6019 15.9028 21.7255 16.1255 21.799 16.3665C21.8726 16.6075 21.8945 16.8614 21.8633 17.1114C21.2398 19.9605 20.2494 22.74 19.6233 25.5848C19.5393 25.8661 19.4978 26.1585 19.5001 26.4521ZM15.8017 16.9509V18.0347C16.3963 18.1069 18.3152 17.2472 18.3814 18.2164L16.3835 25.854C16.3458 26.3924 16.4609 26.9305 16.7155 27.4065C16.97 27.8824 17.3537 28.2767 17.8225 28.5442C20.0642 29.7946 21.8353 27.637 22.689 25.7835L20.7539 27.0999C19.0686 27.9494 18.2158 27.3811 18.587 25.5072C19.1383 22.7244 20.2273 19.8856 20.8227 17.0978C20.8599 16.9757 20.8656 16.8463 20.8392 16.7216C20.8128 16.5968 20.7552 16.4809 20.6718 16.3843C20.5884 16.2878 20.4819 16.2138 20.3623 16.1695C20.2427 16.1252 20.1139 16.1123 19.9877 16.1313L15.8017 16.9509Z" fill="url(#paint1_linear_23_161)"/>
<path d="M23.1423 11.7957C23.1423 12.3367 22.9819 12.8652 22.6814 13.315C22.3808 13.7648 21.9536 14.1155 21.4538 14.3225C20.954 14.5295 20.4041 14.5836 19.8735 14.478C19.3429 14.3725 18.8555 14.1123 18.473 13.7298C18.0905 13.3473 17.83 12.8597 17.7244 12.3291C17.6189 11.7985 17.6731 11.2486 17.8801 10.7488C18.0871 10.249 18.4377 9.82166 18.8875 9.52111C19.3373 9.22056 19.8661 9.0603 20.4071 9.0603C21.1325 9.06053 21.828 9.34873 22.3409 9.86164C22.8538 10.3745 23.1421 11.0704 23.1423 11.7957ZM22.123 11.7957C22.123 11.4563 22.0224 11.1243 21.8338 10.8422C21.6453 10.56 21.3773 10.3399 21.0637 10.21C20.7502 10.0802 20.4052 10.0464 20.0723 10.1126C19.7395 10.1788 19.4338 10.3421 19.1938 10.5821C18.9538 10.8221 18.7904 11.1277 18.7242 11.4606C18.658 11.7934 18.6919 12.1388 18.8218 12.4523C18.9517 12.7658 19.1716 13.0336 19.4538 13.2221C19.736 13.4107 20.0677 13.5116 20.4071 13.5116C20.6326 13.5121 20.856 13.4678 21.0645 13.3818C21.2729 13.2958 21.4624 13.1695 21.622 13.0102C21.7816 12.8509 21.9082 12.6618 21.9946 12.4535C22.0811 12.2452 22.1256 12.0221 22.1256 11.7965L22.123 11.7957Z" fill="url(#paint2_linear_23_161)"/>
</g>
<defs>
<linearGradient id="paint0_linear_23_161" x1="-1.57998" y1="-22.505" x2="38.2551" y2="67.8599" gradientUnits="userSpaceOnUse">
<stop stop-color="#FBBF14"/>
<stop offset="0.481" stop-color="#E77023"/>
<stop offset="0.597" stop-color="#E66B24"/>
<stop offset="1" stop-color="#F48120"/>
</linearGradient>
<linearGradient id="paint1_linear_23_161" x1="-0.985438" y1="-22.6739" x2="65.2111" y2="39.3112" gradientUnits="userSpaceOnUse">
<stop stop-color="#FBBF14"/>
<stop offset="0.481" stop-color="#E77023"/>
<stop offset="0.597" stop-color="#E66B24"/>
<stop offset="1" stop-color="#F48120"/>
</linearGradient>
<linearGradient id="paint2_linear_23_161" x1="4.17082" y1="-25.0362" x2="43.9996" y2="65.3177" gradientUnits="userSpaceOnUse">
<stop stop-color="#FBBF14"/>
<stop offset="0.481" stop-color="#E77023"/>
<stop offset="0.597" stop-color="#E66B24"/>
<stop offset="1" stop-color="#F48120"/>
</linearGradient>
</defs>
</svg>
